<svg width="128" height="32" viewBox="0 0 128 32" fill="none" xmlns="http://www.w3.org/2000/svg">
<g clip-path="url(#clip0_7_206)">
<rect width="128" height="32" rx="16" fill="#00AAFF" fill-opacity="0.46"/>
<g filter="url(#filter0_f_7_206)">
<path d="M34.0239 8.93C34.0239 8.76667 33.9422 8.67333 33.7789 8.65C33.6389 8.60333 33.5339 8.66167 33.4639 8.825C33.4172 8.98833 33.2889 9.04667 33.0789 9C32.8689 8.93 32.7639 9.02333 32.7639 9.28C32.7639 9.46667 32.8455 9.665 33.0089 9.875C33.1955 10.085 33.3705 10.19 33.5339 10.19C33.6272 10.19 33.7322 10.0383 33.8489 9.735C33.9655 9.43167 34.0239 9.16333 34.0239 8.93ZM36.2989 5.325C36.5789 5.255 36.9172 5.22 37.3139 5.22C38.3639 5.22 39.2272 5.37167 39.9039 5.675C40.6739 6.00166 41.3039 6.55 41.7939 7.32C42.2839 8.06667 42.5289 8.825 42.5289 9.595C42.5289 9.945 42.4822 10.2483 42.3889 10.505C42.2022 11.0417 41.7705 11.31 41.0939 11.31C40.7672 11.31 40.5339 11.2517 40.3939 11.135C40.2772 10.995 40.1839 10.7033 40.1139 10.26C40.0205 9.63 39.6822 9.04667 39.0989 8.51C38.5155 7.97333 37.9439 7.705 37.3839 7.705C37.3605 7.705 37.3139 7.71667 37.2439 7.74C37.1972 7.74 37.1622 7.74 37.1389 7.74C36.4855 7.85667 35.9722 8.16 35.5989 8.65C35.2255 9.11667 35.0389 9.665 35.0389 10.295C35.0389 10.925 35.2022 11.4967 35.5289 12.01C35.7155 12.3367 35.9139 12.5817 36.1239 12.745C36.3572 12.9083 36.8355 13.1533 37.5589 13.48C38.5389 13.9467 39.2505 14.3667 39.6939 14.74C40.1605 15.1133 40.5455 15.6267 40.8489 16.28C41.1755 16.9567 41.3622 17.8317 41.4089 18.905C41.4322 19.1617 41.4439 19.4883 41.4439 19.885C41.4439 20.4917 41.3505 21.11 41.1639 21.74C40.7672 23.0467 40.1605 24.0733 39.3439 24.82C38.7839 25.3333 38.2589 25.695 37.7689 25.905C37.3022 26.0917 36.6839 26.2083 35.9139 26.255C35.8205 26.255 35.6922 26.2667 35.5289 26.29C35.3889 26.29 35.2955 26.29 35.2489 26.29C34.8289 26.29 34.1755 26.1267 33.2889 25.8C32.7055 25.5667 32.2972 25.38 32.0639 25.24C31.8539 25.0767 31.6089 24.82 31.3289 24.47C30.5122 23.3733 30.1039 22.3233 30.1039 21.32C30.1039 20.76 30.2205 20.2583 30.4539 19.815C30.7339 19.3017 31.0372 19.045 31.3639 19.045C31.5039 19.045 31.6322 19.0917 31.7489 19.185C31.9122 19.3017 32.0989 19.6867 32.3089 20.34C32.6822 21.4367 33.0905 22.195 33.5339 22.615C33.9772 23.035 34.6189 23.245 35.4589 23.245H35.8089C36.2755 23.2217 36.5905 23.1867 36.7539 23.14C36.9405 23.07 37.1622 22.9067 37.4189 22.65C37.8389 22.23 38.1655 21.7633 38.3989 21.25C38.6322 20.76 38.7489 20.3167 38.7489 19.92C38.7489 19.6633 38.7372 19.4417 38.7139 19.255C38.6672 18.4617 38.5389 17.8783 38.3289 17.505C38.0022 16.7583 37.0455 16 35.4589 15.23C34.2922 14.67 33.4405 13.8767 32.9039 12.85C32.3672 11.8 32.0989 10.855 32.0989 10.015C32.0989 9.85167 32.1222 9.60667 32.1689 9.28C32.2622 8.65 32.3905 8.18333 32.5539 7.88C32.7172 7.55333 33.0322 7.18 33.4989 6.76C34.3155 6.01333 35.2489 5.535 36.2989 5.325ZM51.7634 13.095C51.7634 12.8617 51.6934 12.745 51.5534 12.745C51.4834 12.745 51.3434 12.78 51.1334 12.85C50.9467 12.92 50.8067 12.955 50.7134 12.955C50.6434 12.955 50.5851 12.9433 50.5384 12.92C50.4917 12.8967 50.4334 12.885 50.3634 12.885C50.2467 12.885 50.1884 12.9317 50.1884 13.025C50.1884 13.1883 50.3517 13.4333 50.6784 13.76L51.1684 14.215L51.4834 13.83C51.6701 13.5967 51.7634 13.3517 51.7634 13.095ZM50.6084 6.375C50.6784 6.14167 50.9117 6.025 51.3084 6.025C51.7284 6.025 51.9967 6.11833 52.1134 6.305C52.3701 6.74833 52.4984 7.6 52.4984 8.86C52.4984 9.77 52.4284 10.715 52.2884 11.695L52.2184 12.36L53.5834 12.465C54.2134 12.5117 54.6217 12.5583 54.8084 12.605C55.0184 12.6517 55.2051 12.7683 55.3684 12.955C55.6017 13.235 55.6484 13.4917 55.5084 13.725C55.2284 14.1917 54.5051 14.425 53.3384 14.425H53.0934H52.0084L51.8684 16.14C51.8217 16.8867 51.7984 17.4817 51.7984 17.925C51.7984 19.395 51.9034 20.9583 52.1134 22.615C52.1834 23.2683 52.2184 23.8167 52.2184 24.26C52.2184 25.31 51.9151 25.835 51.3084 25.835C51.1451 25.835 51.0167 25.8233 50.9234 25.8C50.6201 25.7533 50.3867 25.59 50.2234 25.31C50.0834 25.0067 49.9317 24.4583 49.7684 23.665C49.6751 23.1283 49.6284 22.3 49.6284 21.18C49.6284 20.41 49.6517 19.325 49.6984 17.925C49.7684 16.525 49.8034 15.6383 49.8034 15.265C49.8034 14.7283 49.7684 14.4483 49.6984 14.425C49.5351 14.355 49.0917 14.2967 48.3684 14.25C47.6917 14.2033 47.2251 14.1217 46.9684 14.005C46.7117 13.8883 46.5484 13.69 46.4784 13.41C46.4551 13.3633 46.4434 13.2933 46.4434 13.2C46.4434 12.6633 46.9101 12.395 47.8434 12.395C48.2634 12.395 48.7534 12.3717 49.3134 12.325L50.0484 12.185V10.75C50.0484 9.14 50.2351 7.68167 50.6084 6.375ZM69.1234 16.805C68.6801 16.385 68.2251 16.175 67.7584 16.175C67.2217 16.175 66.7084 16.455 66.2184 17.015C66.0317 17.225 65.8801 17.33 65.7634 17.33C65.6001 17.33 65.2967 17.1783 64.8534 16.875C64.4101 16.5717 64.0484 16.42 63.7684 16.42C63.4184 16.42 63.0451 16.6067 62.6484 16.98C62.0651 17.4933 61.7734 18.065 61.7734 18.695C61.7734 18.905 61.8084 19.115 61.8784 19.325C62.0417 19.8617 62.7417 20.7017 63.9784 21.845C65.2151 22.965 66.0551 23.525 66.4984 23.525C66.6851 23.525 67.1284 23.1167 67.8284 22.3C68.5284 21.46 69.0184 20.7483 69.2984 20.165C69.6251 19.5117 69.7884 19.01 69.7884 18.66C69.7884 18.6133 69.7767 18.555 69.7534 18.485C69.7534 18.3917 69.7534 18.31 69.7534 18.24C69.7067 17.6567 69.4967 17.1783 69.1234 16.805ZM69.7534 13.795C69.8467 13.515 70.0101 13.2583 70.2434 13.025C70.5001 12.7683 70.7567 12.64 71.0134 12.64C71.2001 12.64 71.3984 12.745 71.6084 12.955C72.0051 13.375 72.2967 14.3667 72.4834 15.93C72.5534 16.56 72.5884 17.3183 72.5884 18.205C72.5884 19.675 72.5067 21.145 72.3434 22.615C72.1801 24.0617 71.9817 24.995 71.7484 25.415C71.5617 25.7883 71.3517 25.975 71.1184 25.975C70.8151 25.975 70.4534 25.6717 70.0334 25.065C69.9167 24.925 69.8351 24.855 69.7884 24.855C69.6717 24.855 69.4267 24.9717 69.0534 25.205C68.3767 25.6017 67.8401 25.8583 67.4434 25.975C67.0467 26.0917 66.4751 26.15 65.7284 26.15C64.7951 26.15 64.0134 25.9983 63.3834 25.695C60.7934 24.4817 59.4984 22.405 59.4984 19.465V19.01C59.5217 18.1 59.7201 17.2717 60.0934 16.525C60.7001 15.2883 61.7034 14.3433 63.1034 13.69C63.5934 13.4567 63.9667 13.3167 64.2234 13.27C64.4801 13.2 64.9817 13.165 65.7284 13.165C66.4751 13.165 66.9767 13.2 67.2334 13.27C67.4901 13.3167 67.8867 13.4683 68.4234 13.725L69.5784 14.32L69.7534 13.795ZM78.3114 16.175C78.3348 16.105 78.3464 16 78.3464 15.86C78.3464 15.58 78.2881 15.44 78.1714 15.44C78.0781 15.44 77.9964 15.5217 77.9264 15.685C77.7864 15.9183 77.6231 16.035 77.4364 16.035C77.3198 16.035 77.2381 16.0583 77.1914 16.105C77.1448 16.1517 77.1448 16.21 77.1914 16.28C77.2381 16.35 77.3198 16.42 77.4364 16.49C77.6698 16.6067 77.8331 16.665 77.9264 16.665C78.1131 16.665 78.2414 16.5017 78.3114 16.175ZM77.0864 13.83C77.3664 13.62 77.5998 13.515 77.7864 13.515C78.0664 13.515 78.2998 13.7017 78.4864 14.075C78.5564 14.215 78.6031 14.32 78.6264 14.39C78.6731 14.4367 78.7198 14.4717 78.7664 14.495C78.8131 14.5183 78.8598 14.5183 78.9064 14.495C78.9531 14.4717 79.0348 14.425 79.1514 14.355C79.8748 13.8883 80.6098 13.655 81.3564 13.655C81.4964 13.655 81.5898 13.6667 81.6364 13.69C82.1731 13.83 82.4648 13.9 82.5114 13.9C82.8381 13.97 83.1881 14.1917 83.5614 14.565C83.9348 14.915 84.2381 15.3233 84.4714 15.79C84.7048 16.28 84.8214 16.6533 84.8214 16.91C84.8214 17.12 84.7398 17.3067 84.5764 17.47C84.3898 17.6567 84.2148 17.75 84.0514 17.75C83.7714 17.75 83.4098 17.5167 82.9664 17.05C82.3131 16.3733 81.6481 16.035 80.9714 16.035C80.6448 16.035 80.2598 16.14 79.8164 16.35C79.3964 16.56 79.1048 16.7817 78.9414 17.015C78.5681 17.575 78.3814 19.185 78.3814 21.845C78.3814 23.1983 78.3464 24.1083 78.2764 24.575C78.2064 25.0417 78.0548 25.4733 77.8214 25.87C77.7514 26.01 77.6114 26.08 77.4014 26.08C77.0748 26.08 76.7598 25.9283 76.4564 25.625C76.2464 25.415 76.1414 24.8083 76.1414 23.805C76.1414 23.6417 76.1648 22.58 76.2114 20.62C76.2581 18.03 76.3398 16.315 76.4564 15.475C76.5731 14.6117 76.7831 14.0633 77.0864 13.83ZM93.9411 13.095C93.9411 12.8617 93.8711 12.745 93.7311 12.745C93.6611 12.745 93.5211 12.78 93.3111 12.85C93.1245 12.92 92.9845 12.955 92.8911 12.955C92.8211 12.955 92.7628 12.9433 92.7161 12.92C92.6695 12.8967 92.6111 12.885 92.5411 12.885C92.4245 12.885 92.3661 12.9317 92.3661 13.025C92.3661 13.1883 92.5295 13.4333 92.8561 13.76L93.3461 14.215L93.6611 13.83C93.8478 13.5967 93.9411 13.3517 93.9411 13.095ZM92.7861 6.375C92.8561 6.14167 93.0895 6.025 93.4861 6.025C93.9061 6.025 94.1745 6.11833 94.2911 6.305C94.5478 6.74833 94.6761 7.6 94.6761 8.86C94.6761 9.77 94.6061 10.715 94.4661 11.695L94.3961 12.36L95.7611 12.465C96.3911 12.5117 96.7995 12.5583 96.9861 12.605C97.1961 12.6517 97.3828 12.7683 97.5461 12.955C97.7795 13.235 97.8261 13.4917 97.6861 13.725C97.4061 14.1917 96.6828 14.425 95.5161 14.425H95.2711H94.1861L94.0461 16.14C93.9995 16.8867 93.9761 17.4817 93.9761 17.925C93.9761 19.395 94.0811 20.9583 94.2911 22.615C94.3611 23.2683 94.3961 23.8167 94.3961 24.26C94.3961 25.31 94.0928 25.835 93.4861 25.835C93.3228 25.835 93.1945 25.8233 93.1011 25.8C92.7978 25.7533 92.5645 25.59 92.4011 25.31C92.2611 25.0067 92.1095 24.4583 91.9461 23.665C91.8528 23.1283 91.8061 22.3 91.8061 21.18C91.8061 20.41 91.8295 19.325 91.8761 17.925C91.9461 16.525 91.9811 15.6383 91.9811 15.265C91.9811 14.7283 91.9461 14.4483 91.8761 14.425C91.7128 14.355 91.2695 14.2967 90.5461 14.25C89.8695 14.2033 89.4028 14.1217 89.1461 14.005C88.8895 13.8883 88.7261 13.69 88.6561 13.41C88.6328 13.3633 88.6211 13.2933 88.6211 13.2C88.6211 12.6633 89.0878 12.395 90.0211 12.395C90.4411 12.395 90.9311 12.3717 91.4911 12.325L92.2261 12.185V10.75C92.2261 9.14 92.4128 7.68167 92.7861 6.375Z" fill="#FF00B3"/>
</g>
<path d="M34.0239 8.93C34.0239 8.76667 33.9422 8.67333 33.7789 8.65C33.6389 8.60333 33.5339 8.66167 33.4639 8.825C33.4172 8.98833 33.2889 9.04667 33.0789 9C32.8689 8.93 32.7639 9.02333 32.7639 9.28C32.7639 9.46667 32.8455 9.665 33.0089 9.875C33.1955 10.085 33.3705 10.19 33.5339 10.19C33.6272 10.19 33.7322 10.0383 33.8489 9.735C33.9655 9.43167 34.0239 9.16333 34.0239 8.93ZM36.2989 5.325C36.5789 5.255 36.9172 5.22 37.3139 5.22C38.3639 5.22 39.2272 5.37167 39.9039 5.675C40.6739 6.00166 41.3039 6.55 41.7939 7.32C42.2839 8.06667 42.5289 8.825 42.5289 9.595C42.5289 9.945 42.4822 10.2483 42.3889 10.505C42.2022 11.0417 41.7705 11.31 41.0939 11.31C40.7672 11.31 40.5339 11.2517 40.3939 11.135C40.2772 10.995 40.1839 10.7033 40.1139 10.26C40.0205 9.63 39.6822 9.04667 39.0989 8.51C38.5155 7.97333 37.9439 7.705 37.3839 7.705C37.3605 7.705 37.3139 7.71667 37.2439 7.74C37.1972 7.74 37.1622 7.74 37.1389 7.74C36.4855 7.85667 35.9722 8.16 35.5989 8.65C35.2255 9.11667 35.0389 9.665 35.0389 10.295C35.0389 10.925 35.2022 11.4967 35.5289 12.01C35.7155 12.3367 35.9139 12.5817 36.1239 12.745C36.3572 12.9083 36.8355 13.1533 37.5589 13.48C38.5389 13.9467 39.2505 14.3667 39.6939 14.74C40.1605 15.1133 40.5455 15.6267 40.8489 16.28C41.1755 16.9567 41.3622 17.8317 41.4089 18.905C41.4322 19.1617 41.4439 19.4883 41.4439 19.885C41.4439 20.4917 41.3505 21.11 41.1639 21.74C40.7672 23.0467 40.1605 24.0733 39.3439 24.82C38.7839 25.3333 38.2589 25.695 37.7689 25.905C37.3022 26.0917 36.6839 26.2083 35.9139 26.255C35.8205 26.255 35.6922 26.2667 35.5289 26.29C35.3889 26.29 35.2955 26.29 35.2489 26.29C34.8289 26.29 34.1755 26.1267 33.2889 25.8C32.7055 25.5667 32.2972 25.38 32.0639 25.24C31.8539 25.0767 31.6089 24.82 31.3289 24.47C30.5122 23.3733 30.1039 22.3233 30.1039 21.32C30.1039 20.76 30.2205 20.2583 30.4539 19.815C30.7339 19.3017 31.0372 19.045 31.3639 19.045C31.5039 19.045 31.6322 19.0917 31.7489 19.185C31.9122 19.3017 32.0989 19.6867 32.3089 20.34C32.6822 21.4367 33.0905 22.195 33.5339 22.615C33.9772 23.035 34.6189 23.245 35.4589 23.245H35.8089C36.2755 23.2217 36.5905 23.1867 36.7539 23.14C36.9405 23.07 37.1622 22.9067 37.4189 22.65C37.8389 22.23 38.1655 21.7633 38.3989 21.25C38.6322 20.76 38.7489 20.3167 38.7489 19.92C38.7489 19.6633 38.7372 19.4417 38.7139 19.255C38.6672 18.4617 38.5389 17.8783 38.3289 17.505C38.0022 16.7583 37.0455 16 35.4589 15.23C34.2922 14.67 33.4405 13.8767 32.9039 12.85C32.3672 11.8 32.0989 10.855 32.0989 10.015C32.0989 9.85167 32.1222 9.60667 32.1689 9.28C32.2622 8.65 32.3905 8.18333 32.5539 7.88C32.7172 7.55333 33.0322 7.18 33.4989 6.76C34.3155 6.01333 35.2489 5.535 36.2989 5.325ZM51.7634 13.095C51.7634 12.8617 51.6934 12.745 51.5534 12.745C51.4834 12.745 51.3434 12.78 51.1334 12.85C50.9467 12.92 50.8067 12.955 50.7134 12.955C50.6434 12.955 50.5851 12.9433 50.5384 12.92C50.4917 12.8967 50.4334 12.885 50.3634 12.885C50.2467 12.885 50.1884 12.9317 50.1884 13.025C50.1884 13.1883 50.3517 13.4333 50.6784 13.76L51.1684 14.215L51.4834 13.83C51.6701 13.5967 51.7634 13.3517 51.7634 13.095ZM50.6084 6.375C50.6784 6.14167 50.9117 6.025 51.3084 6.025C51.7284 6.025 51.9967 6.11833 52.1134 6.305C52.3701 6.74833 52.4984 7.6 52.4984 8.86C52.4984 9.77 52.4284 10.715 52.2884 11.695L52.2184 12.36L53.5834 12.465C54.2134 12.5117 54.6217 12.5583 54.8084 12.605C55.0184 12.6517 55.2051 12.7683 55.3684 12.955C55.6017 13.235 55.6484 13.4917 55.5084 13.725C55.2284 14.1917 54.5051 14.425 53.3384 14.425H53.0934H52.0084L51.8684 16.14C51.8217 16.8867 51.7984 17.4817 51.7984 17.925C51.7984 19.395 51.9034 20.9583 52.1134 22.615C52.1834 23.2683 52.2184 23.8167 52.2184 24.26C52.2184 25.31 51.9151 25.835 51.3084 25.835C51.1451 25.835 51.0167 25.8233 50.9234 25.8C50.6201 25.7533 50.3867 25.59 50.2234 25.31C50.0834 25.0067 49.9317 24.4583 49.7684 23.665C49.6751 23.1283 49.6284 22.3 49.6284 21.18C49.6284 20.41 49.6517 19.325 49.6984 17.925C49.7684 16.525 49.8034 15.6383 49.8034 15.265C49.8034 14.7283 49.7684 14.4483 49.6984 14.425C49.5351 14.355 49.0917 14.2967 48.3684 14.25C47.6917 14.2033 47.2251 14.1217 46.9684 14.005C46.7117 13.8883 46.5484 13.69 46.4784 13.41C46.4551 13.3633 46.4434 13.2933 46.4434 13.2C46.4434 12.6633 46.9101 12.395 47.8434 12.395C48.2634 12.395 48.7534 12.3717 49.3134 12.325L50.0484 12.185V10.75C50.0484 9.14 50.2351 7.68167 50.6084 6.375ZM69.1234 16.805C68.6801 16.385 68.2251 16.175 67.7584 16.175C67.2217 16.175 66.7084 16.455 66.2184 17.015C66.0317 17.225 65.8801 17.33 65.7634 17.33C65.6001 17.33 65.2967 17.1783 64.8534 16.875C64.4101 16.5717 64.0484 16.42 63.7684 16.42C63.4184 16.42 63.0451 16.6067 62.6484 16.98C62.0651 17.4933 61.7734 18.065 61.7734 18.695C61.7734 18.905 61.8084 19.115 61.8784 19.325C62.0417 19.8617 62.7417 20.7017 63.9784 21.845C65.2151 22.965 66.0551 23.525 66.4984 23.525C66.6851 23.525 67.1284 23.1167 67.8284 22.3C68.5284 21.46 69.0184 20.7483 69.2984 20.165C69.6251 19.5117 69.7884 19.01 69.7884 18.66C69.7884 18.6133 69.7767 18.555 69.7534 18.485C69.7534 18.3917 69.7534 18.31 69.7534 18.24C69.7067 17.6567 69.4967 17.1783 69.1234 16.805ZM69.7534 13.795C69.8467 13.515 70.0101 13.2583 70.2434 13.025C70.5001 12.7683 70.7567 12.64 71.0134 12.64C71.2001 12.64 71.3984 12.745 71.6084 12.955C72.0051 13.375 72.2967 14.3667 72.4834 15.93C72.5534 16.56 72.5884 17.3183 72.5884 18.205C72.5884 19.675 72.5067 21.145 72.3434 22.615C72.1801 24.0617 71.9817 24.995 71.7484 25.415C71.5617 25.7883 71.3517 25.975 71.1184 25.975C70.8151 25.975 70.4534 25.6717 70.0334 25.065C69.9167 24.925 69.8351 24.855 69.7884 24.855C69.6717 24.855 69.4267 24.9717 69.0534 25.205C68.3767 25.6017 67.8401 25.8583 67.4434 25.975C67.0467 26.0917 66.4751 26.15 65.7284 26.15C64.7951 26.15 64.0134 25.9983 63.3834 25.695C60.7934 24.4817 59.4984 22.405 59.4984 19.465V19.01C59.5217 18.1 59.7201 17.2717 60.0934 16.525C60.7001 15.2883 61.7034 14.3433 63.1034 13.69C63.5934 13.4567 63.9667 13.3167 64.2234 13.27C64.4801 13.2 64.9817 13.165 65.7284 13.165C66.4751 13.165 66.9767 13.2 67.2334 13.27C67.4901 13.3167 67.8867 13.4683 68.4234 13.725L69.5784 14.32L69.7534 13.795ZM78.3114 16.175C78.3348 16.105 78.3464 16 78.3464 15.86C78.3464 15.58 78.2881 15.44 78.1714 15.44C78.0781 15.44 77.9964 15.5217 77.9264 15.685C77.7864 15.9183 77.6231 16.035 77.4364 16.035C77.3198 16.035 77.2381 16.0583 77.1914 16.105C77.1448 16.1517 77.1448 16.21 77.1914 16.28C77.2381 16.35 77.3198 16.42 77.4364 16.49C77.6698 16.6067 77.8331 16.665 77.9264 16.665C78.1131 16.665 78.2414 16.5017 78.3114 16.175ZM77.0864 13.83C77.3664 13.62 77.5998 13.515 77.7864 13.515C78.0664 13.515 78.2998 13.7017 78.4864 14.075C78.5564 14.215 78.6031 14.32 78.6264 14.39C78.6731 14.4367 78.7198 14.4717 78.7664 14.495C78.8131 14.5183 78.8598 14.5183 78.9064 14.495C78.9531 14.4717 79.0348 14.425 79.1514 14.355C79.8748 13.8883 80.6098 13.655 81.3564 13.655C81.4964 13.655 81.5898 13.6667 81.6364 13.69C82.1731 13.83 82.4648 13.9 82.5114 13.9C82.8381 13.97 83.1881 14.1917 83.5614 14.565C83.9348 14.915 84.2381 15.3233 84.4714 15.79C84.7048 16.28 84.8214 16.6533 84.8214 16.91C84.8214 17.12 84.7398 17.3067 84.5764 17.47C84.3898 17.6567 84.2148 17.75 84.0514 17.75C83.7714 17.75 83.4098 17.5167 82.9664 17.05C82.3131 16.3733 81.6481 16.035 80.9714 16.035C80.6448 16.035 80.2598 16.14 79.8164 16.35C79.3964 16.56 79.1048 16.7817 78.9414 17.015C78.5681 17.575 78.3814 19.185 78.3814 21.845C78.3814 23.1983 78.3464 24.1083 78.2764 24.575C78.2064 25.0417 78.0548 25.4733 77.8214 25.87C77.7514 26.01 77.6114 26.08 77.4014 26.08C77.0748 26.08 76.7598 25.9283 76.4564 25.625C76.2464 25.415 76.1414 24.8083 76.1414 23.805C76.1414 23.6417 76.1648 22.58 76.2114 20.62C76.2581 18.03 76.3398 16.315 76.4564 15.475C76.5731 14.6117 76.7831 14.0633 77.0864 13.83ZM93.9411 13.095C93.9411 12.8617 93.8711 12.745 93.7311 12.745C93.6611 12.745 93.5211 12.78 93.3111 12.85C93.1245 12.92 92.9845 12.955 92.8911 12.955C92.8211 12.955 92.7628 12.9433 92.7161 12.92C92.6695 12.8967 92.6111 12.885 92.5411 12.885C92.4245 12.885 92.3661 12.9317 92.3661 13.025C92.3661 13.1883 92.5295 13.4333 92.8561 13.76L93.3461 14.215L93.6611 13.83C93.8478 13.5967 93.9411 13.3517 93.9411 13.095ZM92.7861 6.375C92.8561 6.14167 93.0895 6.025 93.4861 6.025C93.9061 6.025 94.1745 6.11833 94.2911 6.305C94.5478 6.74833 94.6761 7.6 94.6761 8.86C94.6761 9.77 94.6061 10.715 94.4661 11.695L94.3961 12.36L95.7611 12.465C96.3911 12.5117 96.7995 12.5583 96.9861 12.605C97.1961 12.6517 97.3828 12.7683 97.5461 12.955C97.7795 13.235 97.8261 13.4917 97.6861 13.725C97.4061 14.1917 96.6828 14.425 95.5161 14.425H95.2711H94.1861L94.0461 16.14C93.9995 16.8867 93.9761 17.4817 93.9761 17.925C93.9761 19.395 94.0811 20.9583 94.2911 22.615C94.3611 23.2683 94.3961 23.8167 94.3961 24.26C94.3961 25.31 94.0928 25.835 93.4861 25.835C93.3228 25.835 93.1945 25.8233 93.1011 25.8C92.7978 25.7533 92.5645 25.59 92.4011 25.31C92.2611 25.0067 92.1095 24.4583 91.9461 23.665C91.8528 23.1283 91.8061 22.3 91.8061 21.18C91.8061 20.41 91.8295 19.325 91.8761 17.925C91.9461 16.525 91.9811 15.6383 91.9811 15.265C91.9811 14.7283 91.9461 14.4483 91.8761 14.425C91.7128 14.355 91.2695 14.2967 90.5461 14.25C89.8695 14.2033 89.4028 14.1217 89.1461 14.005C88.8895 13.8883 88.7261 13.69 88.6561 13.41C88.6328 13.3633 88.6211 13.2933 88.6211 13.2C88.6211 12.6633 89.0878 12.395 90.0211 12.395C90.4411 12.395 90.9311 12.3717 91.4911 12.325L92.2261 12.185V10.75C92.2261 9.14 92.4128 7.68167 92.7861 6.375Z" fill="white"/>
</g>
<defs>
<filter id="filter0_f_7_206" x="26.1039" y="1.22" width="75.7922" height="29.07" filterUnits="userSpaceOnUse" color-interpolation-filters="sRGB">
<feFlood flood-opacity="0" result="BackgroundImageFix"/>
<feBlend mode="normal" in="SourceGraphic" in2="BackgroundImageFix" result="shape"/>
<feGaussianBlur stdDeviation="2" result="effect1_foregroundBlur_7_206"/>
</filter>
<clipPath id="clip0_7_206">
<rect width="128" height="32" rx="16" fill="white"/>
</clipPath>
</defs>
</svg>
