<svg width="128" height="32" viewBox="0 0 128 32" fill="none" xmlns="http://www.w3.org/2000/svg">
<rect width="128" height="32" rx="16" fill="#FF00B3" fill-opacity="0.58"/>
<g filter="url(#filter0_f_7_195)">
<path d="M24.0018 24.155C23.8152 23.805 23.6168 23.7933 23.4068 24.12C23.3135 24.33 23.2202 24.4117 23.1268 24.365C23.0568 24.3417 22.9985 24.3883 22.9518 24.505C22.8818 24.7383 22.9285 24.9017 23.0918 24.995C23.2318 25.0883 23.4535 25.135 23.7568 25.135C24.0368 25.135 24.1768 25.0067 24.1768 24.75C24.1768 24.5633 24.1185 24.365 24.0018 24.155ZM27.1868 5.465C27.7002 5.395 28.1435 5.36 28.5168 5.36C29.1235 5.36 29.6718 5.48833 30.1618 5.745C31.2118 6.25833 31.9352 7.12167 32.3318 8.335C32.4718 8.80167 32.5418 9.16333 32.5418 9.42C32.5418 9.77 32.3902 9.96833 32.0868 10.015H32.0168C31.8068 10.015 31.5035 9.735 31.1068 9.175C30.7335 8.615 30.3835 8.24167 30.0568 8.055C29.7302 7.845 29.3102 7.74 28.7968 7.74H28.4468C27.5835 7.78667 26.8485 8.02 26.2418 8.44C25.6585 8.86 24.9468 9.63 24.1068 10.75C23.5468 11.52 23.0918 12.5467 22.7418 13.83C22.4152 15.1133 22.2518 16.4083 22.2518 17.715C22.2518 18.7183 22.3568 19.6167 22.5668 20.41C22.9635 21.7633 23.5702 22.79 24.3868 23.49C24.7135 23.77 25.1452 24.0383 25.6818 24.295C26.2418 24.5283 26.6618 24.645 26.9418 24.645C28.3185 24.645 29.4618 23.875 30.3718 22.335C30.6285 21.845 30.9085 21.425 31.2118 21.075C31.5152 20.725 31.7485 20.55 31.9118 20.55H31.9468C32.2035 20.62 32.3318 20.8767 32.3318 21.32C32.3318 22.1833 31.9468 23.1983 31.1768 24.365C30.2902 25.6483 29.2868 26.4533 28.1668 26.78C27.6768 26.92 27.1868 26.99 26.6968 26.99C25.3668 26.99 24.1535 26.4883 23.0568 25.485C21.9835 24.4817 21.2135 23.1167 20.7468 21.39C20.5135 20.4567 20.3968 19.1617 20.3968 17.505C20.3968 16.2917 20.4668 15.3 20.6068 14.53C20.9568 12.5933 21.5752 10.8667 22.4618 9.35C23.0452 8.39333 23.7918 7.53 24.7018 6.76C25.6352 5.99 26.4635 5.55833 27.1868 5.465ZM38.3554 16.175C38.3787 16.105 38.3904 16 38.3904 15.86C38.3904 15.58 38.3321 15.44 38.2154 15.44C38.1221 15.44 38.0404 15.5217 37.9704 15.685C37.8304 15.9183 37.6671 16.035 37.4804 16.035C37.3637 16.035 37.2821 16.0583 37.2354 16.105C37.1887 16.1517 37.1887 16.21 37.2354 16.28C37.2821 16.35 37.3637 16.42 37.4804 16.49C37.7137 16.6067 37.8771 16.665 37.9704 16.665C38.1571 16.665 38.2854 16.5017 38.3554 16.175ZM37.1304 13.83C37.4104 13.62 37.6437 13.515 37.8304 13.515C38.1104 13.515 38.3437 13.7017 38.5304 14.075C38.6004 14.215 38.6471 14.32 38.6704 14.39C38.7171 14.4367 38.7637 14.4717 38.8104 14.495C38.8571 14.5183 38.9037 14.5183 38.9504 14.495C38.9971 14.4717 39.0787 14.425 39.1954 14.355C39.9187 13.8883 40.6537 13.655 41.4004 13.655C41.5404 13.655 41.6337 13.6667 41.6804 13.69C42.2171 13.83 42.5087 13.9 42.5554 13.9C42.8821 13.97 43.2321 14.1917 43.6054 14.565C43.9787 14.915 44.2821 15.3233 44.5154 15.79C44.7487 16.28 44.8654 16.6533 44.8654 16.91C44.8654 17.12 44.7837 17.3067 44.6204 17.47C44.4337 17.6567 44.2587 17.75 44.0954 17.75C43.8154 17.75 43.4537 17.5167 43.0104 17.05C42.3571 16.3733 41.6921 16.035 41.0154 16.035C40.6887 16.035 40.3037 16.14 39.8604 16.35C39.4404 16.56 39.1487 16.7817 38.9854 17.015C38.6121 17.575 38.4254 19.185 38.4254 21.845C38.4254 23.1983 38.3904 24.1083 38.3204 24.575C38.2504 25.0417 38.0987 25.4733 37.8654 25.87C37.7954 26.01 37.6554 26.08 37.4454 26.08C37.1187 26.08 36.8037 25.9283 36.5004 25.625C36.2904 25.415 36.1854 24.8083 36.1854 23.805C36.1854 23.6417 36.2087 22.58 36.2554 20.62C36.3021 18.03 36.3837 16.315 36.5004 15.475C36.6171 14.6117 36.8271 14.0633 37.1304 13.83ZM55.7001 14.915C55.4434 14.7517 55.2917 14.67 55.2451 14.67C55.1517 14.67 54.9417 14.775 54.6151 14.985C54.3584 15.1483 54.1951 15.2417 54.1251 15.265C54.0551 15.265 53.9501 15.2067 53.8101 15.09C53.6234 14.95 53.4601 14.88 53.3201 14.88C52.9001 14.88 52.6901 15.1367 52.6901 15.65C52.6901 15.79 52.7017 15.9067 52.7251 16C52.8184 16.28 52.9934 16.6183 53.2501 17.015C53.5067 17.4117 53.7517 17.715 53.9851 17.925C54.1017 18.0417 54.1951 18.1 54.2651 18.1C54.3351 18.1 54.6151 17.8667 55.1051 17.4C55.6417 16.8633 55.9334 16.3617 55.9801 15.895C56.0034 15.7783 56.0151 15.6383 56.0151 15.475C56.0151 15.2417 55.9101 15.055 55.7001 14.915ZM53.6351 13.375C54.1484 13.3283 54.5451 13.305 54.8251 13.305C55.9217 13.305 56.6684 13.4217 57.0651 13.655C57.5317 13.9117 57.9167 14.32 58.2201 14.88C58.5467 15.44 58.7101 15.9883 58.7101 16.525C58.7101 16.8517 58.5701 17.2133 58.2901 17.61C58.0101 17.9833 57.6601 18.275 57.2401 18.485C56.7967 18.7417 55.6301 18.8933 53.7401 18.94L50.8701 19.01L50.8351 20.13V20.585C50.8351 21.0983 50.9751 21.5883 51.2551 22.055C51.7451 22.9183 52.5384 23.5367 53.6351 23.91C54.0551 24.05 54.3817 24.12 54.6151 24.12C54.8251 24.12 55.1401 24.085 55.5601 24.015C56.2834 23.875 56.8901 23.5833 57.3801 23.14C57.8467 22.6967 58.2084 22.475 58.4651 22.475C58.6751 22.475 58.7801 22.65 58.7801 23C58.7801 23.4667 58.6167 23.9567 58.2901 24.47C57.9867 24.96 57.5084 25.38 56.8551 25.73C56.2017 26.0567 55.5484 26.22 54.8951 26.22C54.3351 26.22 53.6467 26.0917 52.8301 25.835C52.0367 25.555 51.3951 25.24 50.9051 24.89C49.3651 23.77 48.5951 22.16 48.5951 20.06V19.465C48.6417 18.4617 48.8401 17.5983 49.1901 16.875C49.6334 15.965 50.2634 15.1833 51.0801 14.53C51.8967 13.8767 52.7484 13.4917 53.6351 13.375ZM67.617 16.945C67.3604 16.8283 67.1504 16.77 66.987 16.77C66.8237 16.77 66.5904 16.8283 66.287 16.945C65.4704 17.225 65.062 17.8433 65.062 18.8V19.045C65.1087 19.605 65.237 20.0367 65.447 20.34C65.7737 20.8533 66.322 21.6 67.092 22.58C67.8854 23.5367 68.3287 24.015 68.422 24.015C68.562 24.015 69.192 23.4317 70.312 22.265C71.432 21.0983 72.0387 20.3983 72.132 20.165C72.2254 19.9083 72.272 19.6633 72.272 19.43C72.272 19.1033 72.1554 18.695 71.922 18.205C71.502 17.3183 70.942 16.875 70.242 16.875C69.8687 16.875 69.472 17.015 69.052 17.295C68.772 17.4817 68.5854 17.5867 68.492 17.61C68.422 17.61 68.352 17.5517 68.282 17.435C68.1887 17.2717 67.967 17.1083 67.617 16.945ZM73.252 5.535C73.322 5.44167 73.4387 5.395 73.602 5.395C73.9287 5.395 74.2437 5.58167 74.547 5.955C74.7337 6.14167 74.8504 6.35167 74.897 6.585C74.967 6.81833 75.0254 7.33167 75.072 8.125C75.1187 8.91833 75.142 10.4467 75.142 12.71C75.142 14.67 75.1304 16.1633 75.107 17.19C75.0604 20.5733 75.0137 22.6733 74.967 23.49C74.9204 24.3067 74.827 24.8783 74.687 25.205C74.477 25.695 74.232 25.9983 73.952 26.115C73.7654 26.2083 73.6254 26.2433 73.532 26.22C73.462 26.1733 73.3454 26.0567 73.182 25.87C72.9487 25.6133 72.8087 25.4033 72.762 25.24C72.7154 25.1233 72.587 25.1467 72.377 25.31C71.467 26.08 70.242 26.465 68.702 26.465C68.2587 26.465 67.932 26.4417 67.722 26.395C66.5554 26.185 65.517 25.695 64.607 24.925C63.7204 24.1317 63.102 23.175 62.752 22.055C62.5654 21.495 62.472 20.725 62.472 19.745C62.472 18.835 62.5537 18.1467 62.717 17.68C63.1837 16.3733 63.9654 15.335 65.062 14.565C66.182 13.795 67.407 13.41 68.737 13.41C69.647 13.41 70.5104 13.5967 71.327 13.97C71.8404 14.2033 72.1787 14.32 72.342 14.32H72.377C72.4237 14.2733 72.5054 13.0017 72.622 10.505C72.762 7.565 72.972 5.90833 73.252 5.535ZM78.8807 9.035C79.0674 8.77833 79.2307 8.65 79.3707 8.65C79.5574 8.65 79.7907 8.81333 80.0707 9.14L80.5607 9.665L81.0157 9.21C81.3191 8.95333 81.5641 8.825 81.7507 8.825C82.1007 8.825 82.2757 9.04667 82.2757 9.49C82.2757 9.65333 82.2407 9.84 82.1707 10.05C81.8441 11.1467 81.3074 11.695 80.5607 11.695C80.0474 11.695 79.6041 11.38 79.2307 10.75C78.8807 10.19 78.7057 9.78167 78.7057 9.525C78.7057 9.36167 78.7641 9.19833 78.8807 9.035ZM79.4407 14.04C79.6974 13.5033 79.9541 13.235 80.2107 13.235C80.3974 13.235 80.6541 13.3983 80.9807 13.725C81.3074 14.0517 81.5291 14.5067 81.6457 15.09C81.7857 15.65 81.8791 16.6767 81.9257 18.17C81.9257 18.31 81.9257 18.5317 81.9257 18.835C81.9491 19.1383 81.9607 19.3717 81.9607 19.535C81.9607 23.1517 81.6107 25.2867 80.9107 25.94C80.7474 26.1033 80.5724 26.185 80.3857 26.185C79.8257 26.185 79.3824 25.5317 79.0557 24.225C78.9157 23.7583 78.8457 22.6383 78.8457 20.865C78.8457 17.1083 79.0441 14.8333 79.4407 14.04ZM91.3435 13.095C91.3435 12.8617 91.2735 12.745 91.1335 12.745C91.0635 12.745 90.9235 12.78 90.7135 12.85C90.5268 12.92 90.3868 12.955 90.2935 12.955C90.2235 12.955 90.1651 12.9433 90.1185 12.92C90.0718 12.8967 90.0135 12.885 89.9435 12.885C89.8268 12.885 89.7685 12.9317 89.7685 13.025C89.7685 13.1883 89.9318 13.4333 90.2585 13.76L90.7485 14.215L91.0635 13.83C91.2501 13.5967 91.3435 13.3517 91.3435 13.095ZM90.1885 6.375C90.2585 6.14167 90.4918 6.025 90.8885 6.025C91.3085 6.025 91.5768 6.11833 91.6935 6.305C91.9501 6.74833 92.0785 7.6 92.0785 8.86C92.0785 9.77 92.0085 10.715 91.8685 11.695L91.7985 12.36L93.1635 12.465C93.7935 12.5117 94.2018 12.5583 94.3885 12.605C94.5985 12.6517 94.7851 12.7683 94.9485 12.955C95.1818 13.235 95.2285 13.4917 95.0885 13.725C94.8085 14.1917 94.0851 14.425 92.9185 14.425H92.6735H91.5885L91.4485 16.14C91.4018 16.8867 91.3785 17.4817 91.3785 17.925C91.3785 19.395 91.4835 20.9583 91.6935 22.615C91.7635 23.2683 91.7985 23.8167 91.7985 24.26C91.7985 25.31 91.4951 25.835 90.8885 25.835C90.7251 25.835 90.5968 25.8233 90.5035 25.8C90.2001 25.7533 89.9668 25.59 89.8035 25.31C89.6635 25.0067 89.5118 24.4583 89.3485 23.665C89.2551 23.1283 89.2085 22.3 89.2085 21.18C89.2085 20.41 89.2318 19.325 89.2785 17.925C89.3485 16.525 89.3835 15.6383 89.3835 15.265C89.3835 14.7283 89.3485 14.4483 89.2785 14.425C89.1151 14.355 88.6718 14.2967 87.9485 14.25C87.2718 14.2033 86.8051 14.1217 86.5485 14.005C86.2918 13.8883 86.1285 13.69 86.0585 13.41C86.0351 13.3633 86.0235 13.2933 86.0235 13.2C86.0235 12.6633 86.4901 12.395 87.4235 12.395C87.8435 12.395 88.3335 12.3717 88.8935 12.325L89.6285 12.185V10.75C89.6285 9.14 89.8151 7.68167 90.1885 6.375ZM106.883 15.685C107.047 15.5683 107.105 15.37 107.058 15.09C107.012 14.81 106.895 14.67 106.708 14.67C106.522 14.67 106.358 14.7283 106.218 14.845C106.055 14.9383 105.973 15.02 105.973 15.09C105.997 15.16 106.102 15.2883 106.288 15.475C106.545 15.7317 106.743 15.8017 106.883 15.685ZM102.928 13.13C103.418 12.9667 103.978 12.885 104.608 12.885C105.215 12.885 105.717 12.9667 106.113 13.13C106.533 13.34 106.872 13.69 107.128 14.18C107.408 14.67 107.548 15.1483 107.548 15.615C107.548 16.0117 107.455 16.3033 107.268 16.49C107.058 16.7 106.848 16.805 106.638 16.805C106.405 16.805 106.195 16.6417 106.008 16.315C105.892 16.105 105.682 15.79 105.378 15.37C105.028 14.9967 104.597 14.81 104.083 14.81C103.687 14.81 103.313 14.9267 102.963 15.16C102.613 15.37 102.392 15.6733 102.298 16.07C102.182 16.4433 102.252 16.77 102.508 17.05C102.788 17.33 103.162 17.575 103.628 17.785C105.192 18.5317 106.265 19.3367 106.848 20.2C107.268 20.8533 107.525 21.3083 107.618 21.565C107.688 21.775 107.723 22.0667 107.723 22.44C107.723 23.5133 107.572 24.295 107.268 24.785C107.012 25.2283 106.498 25.6017 105.728 25.905C104.982 26.2083 104.223 26.36 103.453 26.36C103.29 26.36 103.045 26.3367 102.718 26.29C101.808 26.1033 101.038 25.695 100.408 25.065C99.6851 24.365 99.2535 23.42 99.1135 22.23C99.0901 22.0433 99.0785 21.845 99.0785 21.635C99.0785 21.4017 99.1601 21.2033 99.3235 21.04C99.5335 20.8767 99.7668 20.795 100.023 20.795C100.327 20.795 100.537 20.8883 100.653 21.075C100.677 21.145 100.77 21.4367 100.933 21.95C101.283 23.4667 102.298 24.225 103.978 24.225C104.888 24.225 105.343 23.8167 105.343 23C105.343 22.86 105.32 22.65 105.273 22.37C105.18 21.95 104.853 21.46 104.293 20.9C103.733 20.34 103.115 19.9083 102.438 19.605C101.692 19.255 101.213 18.9517 101.003 18.695C100.56 18.1817 100.338 17.4117 100.338 16.385C100.338 15.895 100.408 15.4633 100.548 15.09C100.665 14.7867 100.968 14.425 101.458 14.005C101.972 13.585 102.462 13.2933 102.928 13.13Z" fill="#00AAFF"/>
</g>
<path d="M24.0018 24.155C23.8152 23.805 23.6168 23.7933 23.4068 24.12C23.3135 24.33 23.2202 24.4117 23.1268 24.365C23.0568 24.3417 22.9985 24.3883 22.9518 24.505C22.8818 24.7383 22.9285 24.9017 23.0918 24.995C23.2318 25.0883 23.4535 25.135 23.7568 25.135C24.0368 25.135 24.1768 25.0067 24.1768 24.75C24.1768 24.5633 24.1185 24.365 24.0018 24.155ZM27.1868 5.465C27.7002 5.395 28.1435 5.36 28.5168 5.36C29.1235 5.36 29.6718 5.48833 30.1618 5.745C31.2118 6.25833 31.9352 7.12167 32.3318 8.335C32.4718 8.80167 32.5418 9.16333 32.5418 9.42C32.5418 9.77 32.3902 9.96833 32.0868 10.015H32.0168C31.8068 10.015 31.5035 9.735 31.1068 9.175C30.7335 8.615 30.3835 8.24167 30.0568 8.055C29.7302 7.845 29.3102 7.74 28.7968 7.74H28.4468C27.5835 7.78667 26.8485 8.02 26.2418 8.44C25.6585 8.86 24.9468 9.63 24.1068 10.75C23.5468 11.52 23.0918 12.5467 22.7418 13.83C22.4152 15.1133 22.2518 16.4083 22.2518 17.715C22.2518 18.7183 22.3568 19.6167 22.5668 20.41C22.9635 21.7633 23.5702 22.79 24.3868 23.49C24.7135 23.77 25.1452 24.0383 25.6818 24.295C26.2418 24.5283 26.6618 24.645 26.9418 24.645C28.3185 24.645 29.4618 23.875 30.3718 22.335C30.6285 21.845 30.9085 21.425 31.2118 21.075C31.5152 20.725 31.7485 20.55 31.9118 20.55H31.9468C32.2035 20.62 32.3318 20.8767 32.3318 21.32C32.3318 22.1833 31.9468 23.1983 31.1768 24.365C30.2902 25.6483 29.2868 26.4533 28.1668 26.78C27.6768 26.92 27.1868 26.99 26.6968 26.99C25.3668 26.99 24.1535 26.4883 23.0568 25.485C21.9835 24.4817 21.2135 23.1167 20.7468 21.39C20.5135 20.4567 20.3968 19.1617 20.3968 17.505C20.3968 16.2917 20.4668 15.3 20.6068 14.53C20.9568 12.5933 21.5752 10.8667 22.4618 9.35C23.0452 8.39333 23.7918 7.53 24.7018 6.76C25.6352 5.99 26.4635 5.55833 27.1868 5.465ZM38.3554 16.175C38.3787 16.105 38.3904 16 38.3904 15.86C38.3904 15.58 38.3321 15.44 38.2154 15.44C38.1221 15.44 38.0404 15.5217 37.9704 15.685C37.8304 15.9183 37.6671 16.035 37.4804 16.035C37.3637 16.035 37.2821 16.0583 37.2354 16.105C37.1887 16.1517 37.1887 16.21 37.2354 16.28C37.2821 16.35 37.3637 16.42 37.4804 16.49C37.7137 16.6067 37.8771 16.665 37.9704 16.665C38.1571 16.665 38.2854 16.5017 38.3554 16.175ZM37.1304 13.83C37.4104 13.62 37.6437 13.515 37.8304 13.515C38.1104 13.515 38.3437 13.7017 38.5304 14.075C38.6004 14.215 38.6471 14.32 38.6704 14.39C38.7171 14.4367 38.7637 14.4717 38.8104 14.495C38.8571 14.5183 38.9037 14.5183 38.9504 14.495C38.9971 14.4717 39.0787 14.425 39.1954 14.355C39.9187 13.8883 40.6537 13.655 41.4004 13.655C41.5404 13.655 41.6337 13.6667 41.6804 13.69C42.2171 13.83 42.5087 13.9 42.5554 13.9C42.8821 13.97 43.2321 14.1917 43.6054 14.565C43.9787 14.915 44.2821 15.3233 44.5154 15.79C44.7487 16.28 44.8654 16.6533 44.8654 16.91C44.8654 17.12 44.7837 17.3067 44.6204 17.47C44.4337 17.6567 44.2587 17.75 44.0954 17.75C43.8154 17.75 43.4537 17.5167 43.0104 17.05C42.3571 16.3733 41.6921 16.035 41.0154 16.035C40.6887 16.035 40.3037 16.14 39.8604 16.35C39.4404 16.56 39.1487 16.7817 38.9854 17.015C38.6121 17.575 38.4254 19.185 38.4254 21.845C38.4254 23.1983 38.3904 24.1083 38.3204 24.575C38.2504 25.0417 38.0987 25.4733 37.8654 25.87C37.7954 26.01 37.6554 26.08 37.4454 26.08C37.1187 26.08 36.8037 25.9283 36.5004 25.625C36.2904 25.415 36.1854 24.8083 36.1854 23.805C36.1854 23.6417 36.2087 22.58 36.2554 20.62C36.3021 18.03 36.3837 16.315 36.5004 15.475C36.6171 14.6117 36.8271 14.0633 37.1304 13.83ZM55.7001 14.915C55.4434 14.7517 55.2917 14.67 55.2451 14.67C55.1517 14.67 54.9417 14.775 54.6151 14.985C54.3584 15.1483 54.1951 15.2417 54.1251 15.265C54.0551 15.265 53.9501 15.2067 53.8101 15.09C53.6234 14.95 53.4601 14.88 53.3201 14.88C52.9001 14.88 52.6901 15.1367 52.6901 15.65C52.6901 15.79 52.7017 15.9067 52.7251 16C52.8184 16.28 52.9934 16.6183 53.2501 17.015C53.5067 17.4117 53.7517 17.715 53.9851 17.925C54.1017 18.0417 54.1951 18.1 54.2651 18.1C54.3351 18.1 54.6151 17.8667 55.1051 17.4C55.6417 16.8633 55.9334 16.3617 55.9801 15.895C56.0034 15.7783 56.0151 15.6383 56.0151 15.475C56.0151 15.2417 55.9101 15.055 55.7001 14.915ZM53.6351 13.375C54.1484 13.3283 54.5451 13.305 54.8251 13.305C55.9217 13.305 56.6684 13.4217 57.0651 13.655C57.5317 13.9117 57.9167 14.32 58.2201 14.88C58.5467 15.44 58.7101 15.9883 58.7101 16.525C58.7101 16.8517 58.5701 17.2133 58.2901 17.61C58.0101 17.9833 57.6601 18.275 57.2401 18.485C56.7967 18.7417 55.6301 18.8933 53.7401 18.94L50.8701 19.01L50.8351 20.13V20.585C50.8351 21.0983 50.9751 21.5883 51.2551 22.055C51.7451 22.9183 52.5384 23.5367 53.6351 23.91C54.0551 24.05 54.3817 24.12 54.6151 24.12C54.8251 24.12 55.1401 24.085 55.5601 24.015C56.2834 23.875 56.8901 23.5833 57.3801 23.14C57.8467 22.6967 58.2084 22.475 58.4651 22.475C58.6751 22.475 58.7801 22.65 58.7801 23C58.7801 23.4667 58.6167 23.9567 58.2901 24.47C57.9867 24.96 57.5084 25.38 56.8551 25.73C56.2017 26.0567 55.5484 26.22 54.8951 26.22C54.3351 26.22 53.6467 26.0917 52.8301 25.835C52.0367 25.555 51.3951 25.24 50.9051 24.89C49.3651 23.77 48.5951 22.16 48.5951 20.06V19.465C48.6417 18.4617 48.8401 17.5983 49.1901 16.875C49.6334 15.965 50.2634 15.1833 51.0801 14.53C51.8967 13.8767 52.7484 13.4917 53.6351 13.375ZM67.617 16.945C67.3604 16.8283 67.1504 16.77 66.987 16.77C66.8237 16.77 66.5904 16.8283 66.287 16.945C65.4704 17.225 65.062 17.8433 65.062 18.8V19.045C65.1087 19.605 65.237 20.0367 65.447 20.34C65.7737 20.8533 66.322 21.6 67.092 22.58C67.8854 23.5367 68.3287 24.015 68.422 24.015C68.562 24.015 69.192 23.4317 70.312 22.265C71.432 21.0983 72.0387 20.3983 72.132 20.165C72.2254 19.9083 72.272 19.6633 72.272 19.43C72.272 19.1033 72.1554 18.695 71.922 18.205C71.502 17.3183 70.942 16.875 70.242 16.875C69.8687 16.875 69.472 17.015 69.052 17.295C68.772 17.4817 68.5854 17.5867 68.492 17.61C68.422 17.61 68.352 17.5517 68.282 17.435C68.1887 17.2717 67.967 17.1083 67.617 16.945ZM73.252 5.535C73.322 5.44167 73.4387 5.395 73.602 5.395C73.9287 5.395 74.2437 5.58167 74.547 5.955C74.7337 6.14167 74.8504 6.35167 74.897 6.585C74.967 6.81833 75.0254 7.33167 75.072 8.125C75.1187 8.91833 75.142 10.4467 75.142 12.71C75.142 14.67 75.1304 16.1633 75.107 17.19C75.0604 20.5733 75.0137 22.6733 74.967 23.49C74.9204 24.3067 74.827 24.8783 74.687 25.205C74.477 25.695 74.232 25.9983 73.952 26.115C73.7654 26.2083 73.6254 26.2433 73.532 26.22C73.462 26.1733 73.3454 26.0567 73.182 25.87C72.9487 25.6133 72.8087 25.4033 72.762 25.24C72.7154 25.1233 72.587 25.1467 72.377 25.31C71.467 26.08 70.242 26.465 68.702 26.465C68.2587 26.465 67.932 26.4417 67.722 26.395C66.5554 26.185 65.517 25.695 64.607 24.925C63.7204 24.1317 63.102 23.175 62.752 22.055C62.5654 21.495 62.472 20.725 62.472 19.745C62.472 18.835 62.5537 18.1467 62.717 17.68C63.1837 16.3733 63.9654 15.335 65.062 14.565C66.182 13.795 67.407 13.41 68.737 13.41C69.647 13.41 70.5104 13.5967 71.327 13.97C71.8404 14.2033 72.1787 14.32 72.342 14.32H72.377C72.4237 14.2733 72.5054 13.0017 72.622 10.505C72.762 7.565 72.972 5.90833 73.252 5.535ZM78.8807 9.035C79.0674 8.77833 79.2307 8.65 79.3707 8.65C79.5574 8.65 79.7907 8.81333 80.0707 9.14L80.5607 9.665L81.0157 9.21C81.3191 8.95333 81.5641 8.825 81.7507 8.825C82.1007 8.825 82.2757 9.04667 82.2757 9.49C82.2757 9.65333 82.2407 9.84 82.1707 10.05C81.8441 11.1467 81.3074 11.695 80.5607 11.695C80.0474 11.695 79.6041 11.38 79.2307 10.75C78.8807 10.19 78.7057 9.78167 78.7057 9.525C78.7057 9.36167 78.7641 9.19833 78.8807 9.035ZM79.4407 14.04C79.6974 13.5033 79.9541 13.235 80.2107 13.235C80.3974 13.235 80.6541 13.3983 80.9807 13.725C81.3074 14.0517 81.5291 14.5067 81.6457 15.09C81.7857 15.65 81.8791 16.6767 81.9257 18.17C81.9257 18.31 81.9257 18.5317 81.9257 18.835C81.9491 19.1383 81.9607 19.3717 81.9607 19.535C81.9607 23.1517 81.6107 25.2867 80.9107 25.94C80.7474 26.1033 80.5724 26.185 80.3857 26.185C79.8257 26.185 79.3824 25.5317 79.0557 24.225C78.9157 23.7583 78.8457 22.6383 78.8457 20.865C78.8457 17.1083 79.0441 14.8333 79.4407 14.04ZM91.3435 13.095C91.3435 12.8617 91.2735 12.745 91.1335 12.745C91.0635 12.745 90.9235 12.78 90.7135 12.85C90.5268 12.92 90.3868 12.955 90.2935 12.955C90.2235 12.955 90.1651 12.9433 90.1185 12.92C90.0718 12.8967 90.0135 12.885 89.9435 12.885C89.8268 12.885 89.7685 12.9317 89.7685 13.025C89.7685 13.1883 89.9318 13.4333 90.2585 13.76L90.7485 14.215L91.0635 13.83C91.2501 13.5967 91.3435 13.3517 91.3435 13.095ZM90.1885 6.375C90.2585 6.14167 90.4918 6.025 90.8885 6.025C91.3085 6.025 91.5768 6.11833 91.6935 6.305C91.9501 6.74833 92.0785 7.6 92.0785 8.86C92.0785 9.77 92.0085 10.715 91.8685 11.695L91.7985 12.36L93.1635 12.465C93.7935 12.5117 94.2018 12.5583 94.3885 12.605C94.5985 12.6517 94.7851 12.7683 94.9485 12.955C95.1818 13.235 95.2285 13.4917 95.0885 13.725C94.8085 14.1917 94.0851 14.425 92.9185 14.425H92.6735H91.5885L91.4485 16.14C91.4018 16.8867 91.3785 17.4817 91.3785 17.925C91.3785 19.395 91.4835 20.9583 91.6935 22.615C91.7635 23.2683 91.7985 23.8167 91.7985 24.26C91.7985 25.31 91.4951 25.835 90.8885 25.835C90.7251 25.835 90.5968 25.8233 90.5035 25.8C90.2001 25.7533 89.9668 25.59 89.8035 25.31C89.6635 25.0067 89.5118 24.4583 89.3485 23.665C89.2551 23.1283 89.2085 22.3 89.2085 21.18C89.2085 20.41 89.2318 19.325 89.2785 17.925C89.3485 16.525 89.3835 15.6383 89.3835 15.265C89.3835 14.7283 89.3485 14.4483 89.2785 14.425C89.1151 14.355 88.6718 14.2967 87.9485 14.25C87.2718 14.2033 86.8051 14.1217 86.5485 14.005C86.2918 13.8883 86.1285 13.69 86.0585 13.41C86.0351 13.3633 86.0235 13.2933 86.0235 13.2C86.0235 12.6633 86.4901 12.395 87.4235 12.395C87.8435 12.395 88.3335 12.3717 88.8935 12.325L89.6285 12.185V10.75C89.6285 9.14 89.8151 7.68167 90.1885 6.375ZM106.883 15.685C107.047 15.5683 107.105 15.37 107.058 15.09C107.012 14.81 106.895 14.67 106.708 14.67C106.522 14.67 106.358 14.7283 106.218 14.845C106.055 14.9383 105.973 15.02 105.973 15.09C105.997 15.16 106.102 15.2883 106.288 15.475C106.545 15.7317 106.743 15.8017 106.883 15.685ZM102.928 13.13C103.418 12.9667 103.978 12.885 104.608 12.885C105.215 12.885 105.717 12.9667 106.113 13.13C106.533 13.34 106.872 13.69 107.128 14.18C107.408 14.67 107.548 15.1483 107.548 15.615C107.548 16.0117 107.455 16.3033 107.268 16.49C107.058 16.7 106.848 16.805 106.638 16.805C106.405 16.805 106.195 16.6417 106.008 16.315C105.892 16.105 105.682 15.79 105.378 15.37C105.028 14.9967 104.597 14.81 104.083 14.81C103.687 14.81 103.313 14.9267 102.963 15.16C102.613 15.37 102.392 15.6733 102.298 16.07C102.182 16.4433 102.252 16.77 102.508 17.05C102.788 17.33 103.162 17.575 103.628 17.785C105.192 18.5317 106.265 19.3367 106.848 20.2C107.268 20.8533 107.525 21.3083 107.618 21.565C107.688 21.775 107.723 22.0667 107.723 22.44C107.723 23.5133 107.572 24.295 107.268 24.785C107.012 25.2283 106.498 25.6017 105.728 25.905C104.982 26.2083 104.223 26.36 103.453 26.36C103.29 26.36 103.045 26.3367 102.718 26.29C101.808 26.1033 101.038 25.695 100.408 25.065C99.6851 24.365 99.2535 23.42 99.1135 22.23C99.0901 22.0433 99.0785 21.845 99.0785 21.635C99.0785 21.4017 99.1601 21.2033 99.3235 21.04C99.5335 20.8767 99.7668 20.795 100.023 20.795C100.327 20.795 100.537 20.8883 100.653 21.075C100.677 21.145 100.77 21.4367 100.933 21.95C101.283 23.4667 102.298 24.225 103.978 24.225C104.888 24.225 105.343 23.8167 105.343 23C105.343 22.86 105.32 22.65 105.273 22.37C105.18 21.95 104.853 21.46 104.293 20.9C103.733 20.34 103.115 19.9083 102.438 19.605C101.692 19.255 101.213 18.9517 101.003 18.695C100.56 18.1817 100.338 17.4117 100.338 16.385C100.338 15.895 100.408 15.4633 100.548 15.09C100.665 14.7867 100.968 14.425 101.458 14.005C101.972 13.585 102.462 13.2933 102.928 13.13Z" fill="white"/>
<defs>
<filter id="filter0_f_7_195" x="16.3969" y="1.36" width="95.3266" height="29.63" filterUnits="userSpaceOnUse" color-interpolation-filters="sRGB">
<feFlood flood-opacity="0" result="BackgroundImageFix"/>
<feBlend mode="normal" in="SourceGraphic" in2="BackgroundImageFix" result="shape"/>
<feGaussianBlur stdDeviation="2" result="effect1_foregroundBlur_7_195"/>
</filter>
</defs>
</svg>
