<svg width="128" height="32" viewBox="0 0 128 32" fill="none" xmlns="http://www.w3.org/2000/svg">
<rect width="128" height="32" rx="16" fill="#00AAFF" fill-opacity="0.46"/>
<g filter="url(#filter0_f_7_200)">
<path d="M10.832 21.725C10.5487 21.5583 10.3237 21.475 10.157 21.475C10.0404 21.475 9.98203 21.5167 9.98203 21.6C9.98203 21.7167 10.0737 21.8583 10.257 22.025C10.4904 22.2417 10.5487 22.4 10.432 22.5C10.3154 22.6 10.257 22.725 10.257 22.875C10.2737 23.0083 10.3487 23.075 10.482 23.075C10.5987 23.075 10.757 22.9583 10.957 22.725C11.1737 22.4917 11.282 22.3083 11.282 22.175C11.282 22.025 11.132 21.875 10.832 21.725ZM17.207 9.65C17.457 9.4 17.6737 9.275 17.857 9.275C18.0737 9.275 18.182 9.45833 18.182 9.825C18.182 10.025 17.7487 11.5417 16.882 14.375C16.732 14.8417 16.3404 15.8167 15.707 17.3C15.0737 18.7667 14.607 19.7917 14.307 20.375L13.707 21.5L14.007 21.725C14.2737 21.9417 14.7154 22.1917 15.332 22.475C15.9654 22.7417 16.507 22.9167 16.957 23C17.6237 23.1167 18.2154 23.175 18.732 23.175C19.9154 23.175 21.0904 22.9667 22.257 22.55C22.6904 22.3833 23.0487 22.3 23.332 22.3C23.6487 22.3 23.807 22.425 23.807 22.675C23.807 23.0583 23.6154 23.35 23.232 23.55C22.9487 23.6833 22.582 23.8917 22.132 24.175C21.0487 24.7917 19.8654 25.125 18.582 25.175H18.232C17.2987 25.175 16.3404 25.05 15.357 24.8C14.3737 24.55 13.5904 24.2333 13.007 23.85C12.6737 23.6333 12.457 23.5583 12.357 23.625C11.907 24.0083 11.4654 24.2 11.032 24.2C10.582 24.2 10.1487 24.025 9.73203 23.675C9.31536 23.325 9.04036 22.9083 8.90703 22.425C8.84036 22.2083 8.80703 21.9833 8.80703 21.75C8.80703 21.2667 8.9487 20.8667 9.23203 20.55C9.53203 20.2167 9.8987 20.05 10.332 20.05C10.6154 20.05 10.907 20.125 11.207 20.275L11.782 20.575L12.182 20.125C12.532 19.7583 13.0737 18.8167 13.807 17.3C14.5404 15.7833 15.2904 14.0333 16.057 12.05C16.607 10.6833 16.9904 9.88333 17.207 9.65ZM31.6066 16.225C31.4233 16.1083 31.315 16.05 31.2816 16.05C31.215 16.05 31.065 16.125 30.8316 16.275C30.6483 16.3917 30.5316 16.4583 30.4816 16.475C30.4316 16.475 30.3566 16.4333 30.2566 16.35C30.1233 16.25 30.0066 16.2 29.9066 16.2C29.6066 16.2 29.4566 16.3833 29.4566 16.75C29.4566 16.85 29.465 16.9333 29.4816 17C29.5483 17.2 29.6733 17.4417 29.8566 17.725C30.04 18.0083 30.215 18.225 30.3816 18.375C30.465 18.4583 30.5316 18.5 30.5816 18.5C30.6316 18.5 30.8316 18.3333 31.1816 18C31.565 17.6167 31.7733 17.2583 31.8066 16.925C31.8233 16.8417 31.8316 16.7417 31.8316 16.625C31.8316 16.4583 31.7566 16.325 31.6066 16.225ZM30.1316 15.125C30.4983 15.0917 30.7816 15.075 30.9816 15.075C31.765 15.075 32.2983 15.1583 32.5816 15.325C32.915 15.5083 33.19 15.8 33.4066 16.2C33.64 16.6 33.7566 16.9917 33.7566 17.375C33.7566 17.6083 33.6566 17.8667 33.4566 18.15C33.2566 18.4167 33.0066 18.625 32.7066 18.775C32.39 18.9583 31.5566 19.0667 30.2066 19.1L28.1566 19.15L28.1316 19.95V20.275C28.1316 20.6417 28.2316 20.9917 28.4316 21.325C28.7816 21.9417 29.3483 22.3833 30.1316 22.65C30.4316 22.75 30.665 22.8 30.8316 22.8C30.9816 22.8 31.2066 22.775 31.5066 22.725C32.0233 22.625 32.4566 22.4167 32.8066 22.1C33.14 21.7833 33.3983 21.625 33.5816 21.625C33.7316 21.625 33.8066 21.75 33.8066 22C33.8066 22.3333 33.69 22.6833 33.4566 23.05C33.24 23.4 32.8983 23.7 32.4316 23.95C31.965 24.1833 31.4983 24.3 31.0316 24.3C30.6316 24.3 30.14 24.2083 29.5566 24.025C28.99 23.825 28.5316 23.6 28.1816 23.35C27.0816 22.55 26.5316 21.4 26.5316 19.9V19.475C26.565 18.7583 26.7066 18.1417 26.9566 17.625C27.2733 16.975 27.7233 16.4167 28.3066 15.95C28.89 15.4833 29.4983 15.2083 30.1316 15.125ZM40.5188 22.55C40.5188 22.4 40.4688 22.3083 40.3688 22.275C40.2688 22.225 40.1854 22.2667 40.1188 22.4C40.0688 22.4667 39.9938 22.4833 39.8938 22.45C39.7938 22.4167 39.7021 22.4417 39.6188 22.525C39.5521 22.6083 39.5354 22.7083 39.5688 22.825C39.6188 22.9583 39.7021 23.0917 39.8188 23.225C39.9521 23.3417 40.0521 23.4 40.1188 23.4C40.2021 23.4 40.2854 23.3083 40.3688 23.125C40.4688 22.925 40.5188 22.7333 40.5188 22.55ZM36.8188 15.125C36.9021 15.0583 36.9938 15.025 37.0938 15.025C37.5104 15.025 37.9688 15.875 38.4688 17.575C39.0521 19.525 39.5021 20.775 39.8188 21.325C39.8854 21.4583 39.9521 21.4 40.0188 21.15C40.0521 21.1 40.0771 21.025 40.0938 20.925C40.9771 17.7417 41.4854 16.0083 41.6188 15.725C41.8188 15.2583 42.1104 15.025 42.4938 15.025C42.6771 15.025 42.8104 15.1167 42.8938 15.3C42.9104 15.3333 42.9188 15.4 42.9188 15.5C42.9188 15.9667 42.4938 17.7333 41.6438 20.8C41.1104 22.8 40.7354 23.8583 40.5188 23.975C40.4021 24.0417 40.2188 24.075 39.9688 24.075C39.7188 24.075 39.4688 23.9167 39.2188 23.6C38.9854 23.2667 38.7104 22.7083 38.3937 21.925C37.9938 20.975 37.5688 19.825 37.1188 18.475C36.6688 17.1083 36.4438 16.3083 36.4438 16.075C36.4438 15.575 36.5688 15.2583 36.8188 15.125ZM50.7229 16.225C50.5395 16.1083 50.4312 16.05 50.3979 16.05C50.3312 16.05 50.1812 16.125 49.9479 16.275C49.7645 16.3917 49.6479 16.4583 49.5979 16.475C49.5479 16.475 49.4729 16.4333 49.3729 16.35C49.2395 16.25 49.1229 16.2 49.0229 16.2C48.7229 16.2 48.5729 16.3833 48.5729 16.75C48.5729 16.85 48.5812 16.9333 48.5979 17C48.6645 17.2 48.7895 17.4417 48.9729 17.725C49.1562 18.0083 49.3312 18.225 49.4979 18.375C49.5812 18.4583 49.6479 18.5 49.6979 18.5C49.7479 18.5 49.9479 18.3333 50.2979 18C50.6812 17.6167 50.8895 17.2583 50.9229 16.925C50.9395 16.8417 50.9479 16.7417 50.9479 16.625C50.9479 16.4583 50.8729 16.325 50.7229 16.225ZM49.2479 15.125C49.6145 15.0917 49.8979 15.075 50.0979 15.075C50.8812 15.075 51.4145 15.1583 51.6979 15.325C52.0312 15.5083 52.3062 15.8 52.5229 16.2C52.7562 16.6 52.8729 16.9917 52.8729 17.375C52.8729 17.6083 52.7729 17.8667 52.5729 18.15C52.3729 18.4167 52.1229 18.625 51.8229 18.775C51.5062 18.9583 50.6729 19.0667 49.3229 19.1L47.2729 19.15L47.2479 19.95V20.275C47.2479 20.6417 47.3479 20.9917 47.5479 21.325C47.8979 21.9417 48.4645 22.3833 49.2479 22.65C49.5479 22.75 49.7812 22.8 49.9479 22.8C50.0979 22.8 50.3229 22.775 50.6229 22.725C51.1395 22.625 51.5729 22.4167 51.9229 22.1C52.2562 21.7833 52.5145 21.625 52.6979 21.625C52.8479 21.625 52.9229 21.75 52.9229 22C52.9229 22.3333 52.8062 22.6833 52.5729 23.05C52.3562 23.4 52.0145 23.7 51.5479 23.95C51.0812 24.1833 50.6145 24.3 50.1479 24.3C49.7479 24.3 49.2562 24.2083 48.6729 24.025C48.1062 23.825 47.6479 23.6 47.2979 23.35C46.1979 22.55 45.6479 21.4 45.6479 19.9V19.475C45.6812 18.7583 45.8229 18.1417 46.0729 17.625C46.3895 16.975 46.8395 16.4167 47.4229 15.95C48.0062 15.4833 48.6145 15.2083 49.2479 15.125ZM56.71 22C56.71 21.7667 56.6933 21.625 56.66 21.575C56.6433 21.5083 56.585 21.475 56.485 21.475C56.3183 21.475 56.2183 21.5417 56.185 21.675C56.135 21.8083 56.0516 21.9167 55.935 22C55.8183 22.1 55.8183 22.2083 55.935 22.325C56.1016 22.4583 56.3183 22.5167 56.585 22.5C56.6683 22.5 56.71 22.3333 56.71 22ZM56.46 9.9C56.4933 9.88333 56.56 9.875 56.66 9.875C57.01 9.875 57.2266 9.95 57.31 10.1C57.4933 10.3667 57.585 10.875 57.585 11.625C57.585 12.4083 57.5016 13.525 57.335 14.975C57.2016 16.175 57.135 17.4167 57.135 18.7C57.135 19.9 57.185 20.8833 57.285 21.65C57.3516 22.0667 57.385 22.4667 57.385 22.85C57.385 23.0167 57.3683 23.2167 57.335 23.45L57.235 24.025H56.66C56.3266 24.025 56.1016 23.95 55.985 23.8C55.885 23.65 55.7683 23.25 55.635 22.6C55.5516 22.15 55.51 21.6583 55.51 21.125C55.51 20.6417 55.535 19.8 55.585 18.6C55.7683 14.0333 55.9183 11.4833 56.035 10.95C56.0516 10.85 56.085 10.7083 56.135 10.525C56.185 10.325 56.21 10.2167 56.21 10.2C56.2433 10.0333 56.3266 9.93333 56.46 9.9ZM69.2486 11.95C69.2486 11.8333 69.1903 11.7667 69.0736 11.75C68.9736 11.7167 68.8986 11.7583 68.8486 11.875C68.8153 11.9917 68.7236 12.0333 68.5736 12C68.4236 11.95 68.3486 12.0167 68.3486 12.2C68.3486 12.3333 68.407 12.475 68.5236 12.625C68.657 12.775 68.782 12.85 68.8986 12.85C68.9653 12.85 69.0403 12.7417 69.1236 12.525C69.207 12.3083 69.2486 12.1167 69.2486 11.95ZM70.8736 9.375C71.0736 9.325 71.3153 9.3 71.5986 9.3C72.3486 9.3 72.9653 9.40833 73.4486 9.625C73.9986 9.85833 74.4486 10.25 74.7986 10.8C75.1486 11.3333 75.3236 11.875 75.3236 12.425C75.3236 12.675 75.2903 12.8917 75.2236 13.075C75.0903 13.4583 74.782 13.65 74.2986 13.65C74.0653 13.65 73.8986 13.6083 73.7986 13.525C73.7153 13.425 73.6486 13.2167 73.5986 12.9C73.532 12.45 73.2903 12.0333 72.8736 11.65C72.457 11.2667 72.0486 11.075 71.6486 11.075C71.632 11.075 71.5986 11.0833 71.5486 11.1C71.5153 11.1 71.4903 11.1 71.4736 11.1C71.007 11.1833 70.6403 11.4 70.3736 11.75C70.107 12.0833 69.9736 12.475 69.9736 12.925C69.9736 13.375 70.0903 13.7833 70.3236 14.15C70.457 14.3833 70.5986 14.5583 70.7486 14.675C70.9153 14.7917 71.257 14.9667 71.7736 15.2C72.4736 15.5333 72.982 15.8333 73.2986 16.1C73.632 16.3667 73.907 16.7333 74.1236 17.2C74.357 17.6833 74.4903 18.3083 74.5236 19.075C74.5403 19.2583 74.5486 19.4917 74.5486 19.775C74.5486 20.2083 74.482 20.65 74.3486 21.1C74.0653 22.0333 73.632 22.7667 73.0486 23.3C72.6486 23.6667 72.2736 23.925 71.9236 24.075C71.5903 24.2083 71.1486 24.2917 70.5986 24.325C70.532 24.325 70.4403 24.3333 70.3236 24.35C70.2236 24.35 70.157 24.35 70.1236 24.35C69.8236 24.35 69.357 24.2333 68.7236 24C68.307 23.8333 68.0153 23.7 67.8486 23.6C67.6986 23.4833 67.5236 23.3 67.3236 23.05C66.7403 22.2667 66.4486 21.5167 66.4486 20.8C66.4486 20.4 66.532 20.0417 66.6986 19.725C66.8986 19.3583 67.1153 19.175 67.3486 19.175C67.4486 19.175 67.5403 19.2083 67.6236 19.275C67.7403 19.3583 67.8736 19.6333 68.0236 20.1C68.2903 20.8833 68.582 21.425 68.8986 21.725C69.2153 22.025 69.6736 22.175 70.2736 22.175H70.5236C70.857 22.1583 71.082 22.1333 71.1986 22.1C71.332 22.05 71.4903 21.9333 71.6736 21.75C71.9736 21.45 72.207 21.1167 72.3736 20.75C72.5403 20.4 72.6236 20.0833 72.6236 19.8C72.6236 19.6167 72.6153 19.4583 72.5986 19.325C72.5653 18.7583 72.4736 18.3417 72.3236 18.075C72.0903 17.5417 71.407 17 70.2736 16.45C69.4403 16.05 68.832 15.4833 68.4486 14.75C68.0653 14 67.8736 13.325 67.8736 12.725C67.8736 12.6083 67.8903 12.4333 67.9236 12.2C67.9903 11.75 68.082 11.4167 68.1986 11.2C68.3153 10.9667 68.5403 10.7 68.8736 10.4C69.457 9.86667 70.1236 9.525 70.8736 9.375ZM83.1447 16.225C82.9614 16.1083 82.8531 16.05 82.8197 16.05C82.7531 16.05 82.6031 16.125 82.3697 16.275C82.1864 16.3917 82.0697 16.4583 82.0197 16.475C81.9697 16.475 81.8947 16.4333 81.7947 16.35C81.6614 16.25 81.5447 16.2 81.4447 16.2C81.1447 16.2 80.9947 16.3833 80.9947 16.75C80.9947 16.85 81.0031 16.9333 81.0197 17C81.0864 17.2 81.2114 17.4417 81.3947 17.725C81.5781 18.0083 81.7531 18.225 81.9197 18.375C82.0031 18.4583 82.0697 18.5 82.1197 18.5C82.1697 18.5 82.3697 18.3333 82.7197 18C83.1031 17.6167 83.3114 17.2583 83.3447 16.925C83.3614 16.8417 83.3697 16.7417 83.3697 16.625C83.3697 16.4583 83.2947 16.325 83.1447 16.225ZM81.6697 15.125C82.0364 15.0917 82.3197 15.075 82.5197 15.075C83.3031 15.075 83.8364 15.1583 84.1197 15.325C84.4531 15.5083 84.7281 15.8 84.9447 16.2C85.1781 16.6 85.2947 16.9917 85.2947 17.375C85.2947 17.6083 85.1947 17.8667 84.9947 18.15C84.7947 18.4167 84.5447 18.625 84.2447 18.775C83.9281 18.9583 83.0947 19.0667 81.7447 19.1L79.6947 19.15L79.6697 19.95V20.275C79.6697 20.6417 79.7697 20.9917 79.9697 21.325C80.3197 21.9417 80.8864 22.3833 81.6697 22.65C81.9697 22.75 82.2031 22.8 82.3697 22.8C82.5197 22.8 82.7447 22.775 83.0447 22.725C83.5614 22.625 83.9947 22.4167 84.3447 22.1C84.6781 21.7833 84.9364 21.625 85.1197 21.625C85.2697 21.625 85.3447 21.75 85.3447 22C85.3447 22.3333 85.2281 22.6833 84.9947 23.05C84.7781 23.4 84.4364 23.7 83.9697 23.95C83.5031 24.1833 83.0364 24.3 82.5697 24.3C82.1697 24.3 81.6781 24.2083 81.0947 24.025C80.5281 23.825 80.0697 23.6 79.7197 23.35C78.6197 22.55 78.0697 21.4 78.0697 19.9V19.475C78.1031 18.7583 78.2447 18.1417 78.4947 17.625C78.8114 16.975 79.2614 16.4167 79.8447 15.95C80.4281 15.4833 81.0364 15.2083 81.6697 15.125ZM89.1318 22C89.1318 21.7667 89.1152 21.625 89.0818 21.575C89.0652 21.5083 89.0068 21.475 88.9068 21.475C88.7402 21.475 88.6402 21.5417 88.6068 21.675C88.5568 21.8083 88.4735 21.9167 88.3568 22C88.2402 22.1 88.2402 22.2083 88.3568 22.325C88.5235 22.4583 88.7402 22.5167 89.0068 22.5C89.0902 22.5 89.1318 22.3333 89.1318 22ZM88.8818 9.9C88.9152 9.88333 88.9818 9.875 89.0818 9.875C89.4318 9.875 89.6485 9.95 89.7318 10.1C89.9152 10.3667 90.0068 10.875 90.0068 11.625C90.0068 12.4083 89.9235 13.525 89.7568 14.975C89.6235 16.175 89.5568 17.4167 89.5568 18.7C89.5568 19.9 89.6068 20.8833 89.7068 21.65C89.7735 22.0667 89.8068 22.4667 89.8068 22.85C89.8068 23.0167 89.7902 23.2167 89.7568 23.45L89.6568 24.025H89.0818C88.7485 24.025 88.5235 23.95 88.4068 23.8C88.3068 23.65 88.1902 23.25 88.0568 22.6C87.9735 22.15 87.9318 21.6583 87.9318 21.125C87.9318 20.6417 87.9568 19.8 88.0068 18.6C88.1902 14.0333 88.3402 11.4833 88.4568 10.95C88.4735 10.85 88.5068 10.7083 88.5568 10.525C88.6068 10.325 88.6318 10.2167 88.6318 10.2C88.6652 10.0333 88.7485 9.93333 88.8818 9.9ZM97.6955 16.225C97.5122 16.1083 97.4038 16.05 97.3705 16.05C97.3038 16.05 97.1538 16.125 96.9205 16.275C96.7372 16.3917 96.6205 16.4583 96.5705 16.475C96.5205 16.475 96.4455 16.4333 96.3455 16.35C96.2122 16.25 96.0955 16.2 95.9955 16.2C95.6955 16.2 95.5455 16.3833 95.5455 16.75C95.5455 16.85 95.5538 16.9333 95.5705 17C95.6372 17.2 95.7622 17.4417 95.9455 17.725C96.1288 18.0083 96.3038 18.225 96.4705 18.375C96.5538 18.4583 96.6205 18.5 96.6705 18.5C96.7205 18.5 96.9205 18.3333 97.2705 18C97.6538 17.6167 97.8622 17.2583 97.8955 16.925C97.9122 16.8417 97.9205 16.7417 97.9205 16.625C97.9205 16.4583 97.8455 16.325 97.6955 16.225ZM96.2205 15.125C96.5872 15.0917 96.8705 15.075 97.0705 15.075C97.8538 15.075 98.3872 15.1583 98.6705 15.325C99.0038 15.5083 99.2788 15.8 99.4955 16.2C99.7288 16.6 99.8455 16.9917 99.8455 17.375C99.8455 17.6083 99.7455 17.8667 99.5455 18.15C99.3455 18.4167 99.0955 18.625 98.7955 18.775C98.4788 18.9583 97.6455 19.0667 96.2955 19.1L94.2455 19.15L94.2205 19.95V20.275C94.2205 20.6417 94.3205 20.9917 94.5205 21.325C94.8705 21.9417 95.4372 22.3833 96.2205 22.65C96.5205 22.75 96.7538 22.8 96.9205 22.8C97.0705 22.8 97.2955 22.775 97.5955 22.725C98.1122 22.625 98.5455 22.4167 98.8955 22.1C99.2288 21.7833 99.4872 21.625 99.6705 21.625C99.8205 21.625 99.8955 21.75 99.8955 22C99.8955 22.3333 99.7788 22.6833 99.5455 23.05C99.3288 23.4 98.9872 23.7 98.5205 23.95C98.0538 24.1833 97.5872 24.3 97.1205 24.3C96.7205 24.3 96.2288 24.2083 95.6455 24.025C95.0788 23.825 94.6205 23.6 94.2705 23.35C93.1705 22.55 92.6205 21.4 92.6205 19.9V19.475C92.6538 18.7583 92.7955 18.1417 93.0455 17.625C93.3622 16.975 93.8122 16.4167 94.3955 15.95C94.9788 15.4833 95.5872 15.2083 96.2205 15.125ZM103.458 19.35C103.458 19.2 103.424 19.1667 103.358 19.25L103.283 19.375C103.266 19.4417 103.199 19.475 103.083 19.475C102.966 19.475 102.908 19.4917 102.908 19.525C102.908 19.625 102.966 19.6917 103.083 19.725C103.183 19.7583 103.266 19.7417 103.333 19.675C103.416 19.5917 103.458 19.4833 103.458 19.35ZM105.758 15.075C105.991 14.9917 106.391 14.95 106.958 14.95C107.841 14.95 108.399 15.0333 108.633 15.2C108.933 15.4 109.174 15.6417 109.358 15.925C109.558 16.2083 109.658 16.4667 109.658 16.7C109.658 16.85 109.608 16.975 109.508 17.075C109.474 17.1083 109.433 17.125 109.383 17.125C109.283 17.125 109.049 17 108.683 16.75C108.166 16.4 107.716 16.225 107.333 16.225C107.066 16.225 106.733 16.3 106.333 16.45C105.366 16.8333 104.641 17.4917 104.158 18.425C104.008 18.725 103.933 19.075 103.933 19.475C103.933 20.0417 104.091 20.5917 104.408 21.125C104.824 21.825 105.416 22.3 106.183 22.55C106.483 22.65 106.708 22.7 106.858 22.7C107.008 22.7 107.233 22.675 107.533 22.625C108.033 22.525 108.474 22.3083 108.858 21.975C109.224 21.6583 109.483 21.5 109.633 21.5C109.783 21.5 109.858 21.6333 109.858 21.9C109.858 22.2167 109.741 22.5583 109.508 22.925C109.024 23.7417 108.199 24.15 107.033 24.15C106.483 24.15 105.899 24.0333 105.283 23.8C104.799 23.6167 104.333 23.325 103.883 22.925C103.449 22.525 103.133 22.1083 102.933 21.675C102.666 21.0917 102.533 20.425 102.533 19.675C102.533 18.8917 102.674 18.1917 102.958 17.575C103.208 17.025 103.591 16.5167 104.108 16.05C104.624 15.5833 105.174 15.2583 105.758 15.075ZM116.368 14.925C116.368 14.7583 116.318 14.675 116.218 14.675C116.168 14.675 116.068 14.7 115.918 14.75C115.785 14.8 115.685 14.825 115.618 14.825C115.568 14.825 115.526 14.8167 115.493 14.8C115.46 14.7833 115.418 14.775 115.368 14.775C115.285 14.775 115.243 14.8083 115.243 14.875C115.243 14.9917 115.36 15.1667 115.593 15.4L115.943 15.725L116.168 15.45C116.301 15.2833 116.368 15.1083 116.368 14.925ZM115.543 10.125C115.593 9.95833 115.76 9.875 116.043 9.875C116.343 9.875 116.535 9.94167 116.618 10.075C116.801 10.3917 116.893 11 116.893 11.9C116.893 12.55 116.843 13.225 116.743 13.925L116.693 14.4L117.668 14.475C118.118 14.5083 118.41 14.5417 118.543 14.575C118.693 14.6083 118.826 14.6917 118.943 14.825C119.11 15.025 119.143 15.2083 119.043 15.375C118.843 15.7083 118.326 15.875 117.493 15.875H117.318H116.543L116.443 17.1C116.41 17.6333 116.393 18.0583 116.393 18.375C116.393 19.425 116.468 20.5417 116.618 21.725C116.668 22.1917 116.693 22.5833 116.693 22.9C116.693 23.65 116.476 24.025 116.043 24.025C115.926 24.025 115.835 24.0167 115.768 24C115.551 23.9667 115.385 23.85 115.268 23.65C115.168 23.4333 115.06 23.0417 114.943 22.475C114.876 22.0917 114.843 21.5 114.843 20.7C114.843 20.15 114.86 19.375 114.893 18.375C114.943 17.375 114.968 16.7417 114.968 16.475C114.968 16.0917 114.943 15.8917 114.893 15.875C114.776 15.825 114.46 15.7833 113.943 15.75C113.46 15.7167 113.126 15.6583 112.943 15.575C112.76 15.4917 112.643 15.35 112.593 15.15C112.576 15.1167 112.568 15.0667 112.568 15C112.568 14.6167 112.901 14.425 113.568 14.425C113.868 14.425 114.218 14.4083 114.618 14.375L115.143 14.275V13.25C115.143 12.1 115.276 11.0583 115.543 10.125Z" fill="#FF00B3"/>
</g>
<path d="M10.832 21.725C10.5487 21.5583 10.3237 21.475 10.157 21.475C10.0404 21.475 9.98203 21.5167 9.98203 21.6C9.98203 21.7167 10.0737 21.8583 10.257 22.025C10.4904 22.2417 10.5487 22.4 10.432 22.5C10.3154 22.6 10.257 22.725 10.257 22.875C10.2737 23.0083 10.3487 23.075 10.482 23.075C10.5987 23.075 10.757 22.9583 10.957 22.725C11.1737 22.4917 11.282 22.3083 11.282 22.175C11.282 22.025 11.132 21.875 10.832 21.725ZM17.207 9.65C17.457 9.4 17.6737 9.275 17.857 9.275C18.0737 9.275 18.182 9.45833 18.182 9.825C18.182 10.025 17.7487 11.5417 16.882 14.375C16.732 14.8417 16.3404 15.8167 15.707 17.3C15.0737 18.7667 14.607 19.7917 14.307 20.375L13.707 21.5L14.007 21.725C14.2737 21.9417 14.7154 22.1917 15.332 22.475C15.9654 22.7417 16.507 22.9167 16.957 23C17.6237 23.1167 18.2154 23.175 18.732 23.175C19.9154 23.175 21.0904 22.9667 22.257 22.55C22.6904 22.3833 23.0487 22.3 23.332 22.3C23.6487 22.3 23.807 22.425 23.807 22.675C23.807 23.0583 23.6154 23.35 23.232 23.55C22.9487 23.6833 22.582 23.8917 22.132 24.175C21.0487 24.7917 19.8654 25.125 18.582 25.175H18.232C17.2987 25.175 16.3404 25.05 15.357 24.8C14.3737 24.55 13.5904 24.2333 13.007 23.85C12.6737 23.6333 12.457 23.5583 12.357 23.625C11.907 24.0083 11.4654 24.2 11.032 24.2C10.582 24.2 10.1487 24.025 9.73203 23.675C9.31536 23.325 9.04036 22.9083 8.90703 22.425C8.84036 22.2083 8.80703 21.9833 8.80703 21.75C8.80703 21.2667 8.9487 20.8667 9.23203 20.55C9.53203 20.2167 9.8987 20.05 10.332 20.05C10.6154 20.05 10.907 20.125 11.207 20.275L11.782 20.575L12.182 20.125C12.532 19.7583 13.0737 18.8167 13.807 17.3C14.5404 15.7833 15.2904 14.0333 16.057 12.05C16.607 10.6833 16.9904 9.88333 17.207 9.65ZM31.6066 16.225C31.4233 16.1083 31.315 16.05 31.2816 16.05C31.215 16.05 31.065 16.125 30.8316 16.275C30.6483 16.3917 30.5316 16.4583 30.4816 16.475C30.4316 16.475 30.3566 16.4333 30.2566 16.35C30.1233 16.25 30.0066 16.2 29.9066 16.2C29.6066 16.2 29.4566 16.3833 29.4566 16.75C29.4566 16.85 29.465 16.9333 29.4816 17C29.5483 17.2 29.6733 17.4417 29.8566 17.725C30.04 18.0083 30.215 18.225 30.3816 18.375C30.465 18.4583 30.5316 18.5 30.5816 18.5C30.6316 18.5 30.8316 18.3333 31.1816 18C31.565 17.6167 31.7733 17.2583 31.8066 16.925C31.8233 16.8417 31.8316 16.7417 31.8316 16.625C31.8316 16.4583 31.7566 16.325 31.6066 16.225ZM30.1316 15.125C30.4983 15.0917 30.7816 15.075 30.9816 15.075C31.765 15.075 32.2983 15.1583 32.5816 15.325C32.915 15.5083 33.19 15.8 33.4066 16.2C33.64 16.6 33.7566 16.9917 33.7566 17.375C33.7566 17.6083 33.6566 17.8667 33.4566 18.15C33.2566 18.4167 33.0066 18.625 32.7066 18.775C32.39 18.9583 31.5566 19.0667 30.2066 19.1L28.1566 19.15L28.1316 19.95V20.275C28.1316 20.6417 28.2316 20.9917 28.4316 21.325C28.7816 21.9417 29.3483 22.3833 30.1316 22.65C30.4316 22.75 30.665 22.8 30.8316 22.8C30.9816 22.8 31.2066 22.775 31.5066 22.725C32.0233 22.625 32.4566 22.4167 32.8066 22.1C33.14 21.7833 33.3983 21.625 33.5816 21.625C33.7316 21.625 33.8066 21.75 33.8066 22C33.8066 22.3333 33.69 22.6833 33.4566 23.05C33.24 23.4 32.8983 23.7 32.4316 23.95C31.965 24.1833 31.4983 24.3 31.0316 24.3C30.6316 24.3 30.14 24.2083 29.5566 24.025C28.99 23.825 28.5316 23.6 28.1816 23.35C27.0816 22.55 26.5316 21.4 26.5316 19.9V19.475C26.565 18.7583 26.7066 18.1417 26.9566 17.625C27.2733 16.975 27.7233 16.4167 28.3066 15.95C28.89 15.4833 29.4983 15.2083 30.1316 15.125ZM40.5188 22.55C40.5188 22.4 40.4688 22.3083 40.3688 22.275C40.2688 22.225 40.1854 22.2667 40.1188 22.4C40.0688 22.4667 39.9938 22.4833 39.8938 22.45C39.7938 22.4167 39.7021 22.4417 39.6188 22.525C39.5521 22.6083 39.5354 22.7083 39.5688 22.825C39.6188 22.9583 39.7021 23.0917 39.8188 23.225C39.9521 23.3417 40.0521 23.4 40.1188 23.4C40.2021 23.4 40.2854 23.3083 40.3688 23.125C40.4688 22.925 40.5188 22.7333 40.5188 22.55ZM36.8188 15.125C36.9021 15.0583 36.9938 15.025 37.0938 15.025C37.5104 15.025 37.9688 15.875 38.4688 17.575C39.0521 19.525 39.5021 20.775 39.8188 21.325C39.8854 21.4583 39.9521 21.4 40.0188 21.15C40.0521 21.1 40.0771 21.025 40.0938 20.925C40.9771 17.7417 41.4854 16.0083 41.6188 15.725C41.8188 15.2583 42.1104 15.025 42.4938 15.025C42.6771 15.025 42.8104 15.1167 42.8938 15.3C42.9104 15.3333 42.9188 15.4 42.9188 15.5C42.9188 15.9667 42.4938 17.7333 41.6438 20.8C41.1104 22.8 40.7354 23.8583 40.5188 23.975C40.4021 24.0417 40.2188 24.075 39.9688 24.075C39.7188 24.075 39.4688 23.9167 39.2188 23.6C38.9854 23.2667 38.7104 22.7083 38.3937 21.925C37.9938 20.975 37.5688 19.825 37.1188 18.475C36.6688 17.1083 36.4438 16.3083 36.4438 16.075C36.4438 15.575 36.5688 15.2583 36.8188 15.125ZM50.7229 16.225C50.5395 16.1083 50.4312 16.05 50.3979 16.05C50.3312 16.05 50.1812 16.125 49.9479 16.275C49.7645 16.3917 49.6479 16.4583 49.5979 16.475C49.5479 16.475 49.4729 16.4333 49.3729 16.35C49.2395 16.25 49.1229 16.2 49.0229 16.2C48.7229 16.2 48.5729 16.3833 48.5729 16.75C48.5729 16.85 48.5812 16.9333 48.5979 17C48.6645 17.2 48.7895 17.4417 48.9729 17.725C49.1562 18.0083 49.3312 18.225 49.4979 18.375C49.5812 18.4583 49.6479 18.5 49.6979 18.5C49.7479 18.5 49.9479 18.3333 50.2979 18C50.6812 17.6167 50.8895 17.2583 50.9229 16.925C50.9395 16.8417 50.9479 16.7417 50.9479 16.625C50.9479 16.4583 50.8729 16.325 50.7229 16.225ZM49.2479 15.125C49.6145 15.0917 49.8979 15.075 50.0979 15.075C50.8812 15.075 51.4145 15.1583 51.6979 15.325C52.0312 15.5083 52.3062 15.8 52.5229 16.2C52.7562 16.6 52.8729 16.9917 52.8729 17.375C52.8729 17.6083 52.7729 17.8667 52.5729 18.15C52.3729 18.4167 52.1229 18.625 51.8229 18.775C51.5062 18.9583 50.6729 19.0667 49.3229 19.1L47.2729 19.15L47.2479 19.95V20.275C47.2479 20.6417 47.3479 20.9917 47.5479 21.325C47.8979 21.9417 48.4645 22.3833 49.2479 22.65C49.5479 22.75 49.7812 22.8 49.9479 22.8C50.0979 22.8 50.3229 22.775 50.6229 22.725C51.1395 22.625 51.5729 22.4167 51.9229 22.1C52.2562 21.7833 52.5145 21.625 52.6979 21.625C52.8479 21.625 52.9229 21.75 52.9229 22C52.9229 22.3333 52.8062 22.6833 52.5729 23.05C52.3562 23.4 52.0145 23.7 51.5479 23.95C51.0812 24.1833 50.6145 24.3 50.1479 24.3C49.7479 24.3 49.2562 24.2083 48.6729 24.025C48.1062 23.825 47.6479 23.6 47.2979 23.35C46.1979 22.55 45.6479 21.4 45.6479 19.9V19.475C45.6812 18.7583 45.8229 18.1417 46.0729 17.625C46.3895 16.975 46.8395 16.4167 47.4229 15.95C48.0062 15.4833 48.6145 15.2083 49.2479 15.125ZM56.71 22C56.71 21.7667 56.6933 21.625 56.66 21.575C56.6433 21.5083 56.585 21.475 56.485 21.475C56.3183 21.475 56.2183 21.5417 56.185 21.675C56.135 21.8083 56.0516 21.9167 55.935 22C55.8183 22.1 55.8183 22.2083 55.935 22.325C56.1016 22.4583 56.3183 22.5167 56.585 22.5C56.6683 22.5 56.71 22.3333 56.71 22ZM56.46 9.9C56.4933 9.88333 56.56 9.875 56.66 9.875C57.01 9.875 57.2266 9.95 57.31 10.1C57.4933 10.3667 57.585 10.875 57.585 11.625C57.585 12.4083 57.5016 13.525 57.335 14.975C57.2016 16.175 57.135 17.4167 57.135 18.7C57.135 19.9 57.185 20.8833 57.285 21.65C57.3516 22.0667 57.385 22.4667 57.385 22.85C57.385 23.0167 57.3683 23.2167 57.335 23.45L57.235 24.025H56.66C56.3266 24.025 56.1016 23.95 55.985 23.8C55.885 23.65 55.7683 23.25 55.635 22.6C55.5516 22.15 55.51 21.6583 55.51 21.125C55.51 20.6417 55.535 19.8 55.585 18.6C55.7683 14.0333 55.9183 11.4833 56.035 10.95C56.0516 10.85 56.085 10.7083 56.135 10.525C56.185 10.325 56.21 10.2167 56.21 10.2C56.2433 10.0333 56.3266 9.93333 56.46 9.9ZM69.2486 11.95C69.2486 11.8333 69.1903 11.7667 69.0736 11.75C68.9736 11.7167 68.8986 11.7583 68.8486 11.875C68.8153 11.9917 68.7236 12.0333 68.5736 12C68.4236 11.95 68.3486 12.0167 68.3486 12.2C68.3486 12.3333 68.407 12.475 68.5236 12.625C68.657 12.775 68.782 12.85 68.8986 12.85C68.9653 12.85 69.0403 12.7417 69.1236 12.525C69.207 12.3083 69.2486 12.1167 69.2486 11.95ZM70.8736 9.375C71.0736 9.325 71.3153 9.3 71.5986 9.3C72.3486 9.3 72.9653 9.40833 73.4486 9.625C73.9986 9.85833 74.4486 10.25 74.7986 10.8C75.1486 11.3333 75.3236 11.875 75.3236 12.425C75.3236 12.675 75.2903 12.8917 75.2236 13.075C75.0903 13.4583 74.782 13.65 74.2986 13.65C74.0653 13.65 73.8986 13.6083 73.7986 13.525C73.7153 13.425 73.6486 13.2167 73.5986 12.9C73.532 12.45 73.2903 12.0333 72.8736 11.65C72.457 11.2667 72.0486 11.075 71.6486 11.075C71.632 11.075 71.5986 11.0833 71.5486 11.1C71.5153 11.1 71.4903 11.1 71.4736 11.1C71.007 11.1833 70.6403 11.4 70.3736 11.75C70.107 12.0833 69.9736 12.475 69.9736 12.925C69.9736 13.375 70.0903 13.7833 70.3236 14.15C70.457 14.3833 70.5986 14.5583 70.7486 14.675C70.9153 14.7917 71.257 14.9667 71.7736 15.2C72.4736 15.5333 72.982 15.8333 73.2986 16.1C73.632 16.3667 73.907 16.7333 74.1236 17.2C74.357 17.6833 74.4903 18.3083 74.5236 19.075C74.5403 19.2583 74.5486 19.4917 74.5486 19.775C74.5486 20.2083 74.482 20.65 74.3486 21.1C74.0653 22.0333 73.632 22.7667 73.0486 23.3C72.6486 23.6667 72.2736 23.925 71.9236 24.075C71.5903 24.2083 71.1486 24.2917 70.5986 24.325C70.532 24.325 70.4403 24.3333 70.3236 24.35C70.2236 24.35 70.157 24.35 70.1236 24.35C69.8236 24.35 69.357 24.2333 68.7236 24C68.307 23.8333 68.0153 23.7 67.8486 23.6C67.6986 23.4833 67.5236 23.3 67.3236 23.05C66.7403 22.2667 66.4486 21.5167 66.4486 20.8C66.4486 20.4 66.532 20.0417 66.6986 19.725C66.8986 19.3583 67.1153 19.175 67.3486 19.175C67.4486 19.175 67.5403 19.2083 67.6236 19.275C67.7403 19.3583 67.8736 19.6333 68.0236 20.1C68.2903 20.8833 68.582 21.425 68.8986 21.725C69.2153 22.025 69.6736 22.175 70.2736 22.175H70.5236C70.857 22.1583 71.082 22.1333 71.1986 22.1C71.332 22.05 71.4903 21.9333 71.6736 21.75C71.9736 21.45 72.207 21.1167 72.3736 20.75C72.5403 20.4 72.6236 20.0833 72.6236 19.8C72.6236 19.6167 72.6153 19.4583 72.5986 19.325C72.5653 18.7583 72.4736 18.3417 72.3236 18.075C72.0903 17.5417 71.407 17 70.2736 16.45C69.4403 16.05 68.832 15.4833 68.4486 14.75C68.0653 14 67.8736 13.325 67.8736 12.725C67.8736 12.6083 67.8903 12.4333 67.9236 12.2C67.9903 11.75 68.082 11.4167 68.1986 11.2C68.3153 10.9667 68.5403 10.7 68.8736 10.4C69.457 9.86667 70.1236 9.525 70.8736 9.375ZM83.1447 16.225C82.9614 16.1083 82.8531 16.05 82.8197 16.05C82.7531 16.05 82.6031 16.125 82.3697 16.275C82.1864 16.3917 82.0697 16.4583 82.0197 16.475C81.9697 16.475 81.8947 16.4333 81.7947 16.35C81.6614 16.25 81.5447 16.2 81.4447 16.2C81.1447 16.2 80.9947 16.3833 80.9947 16.75C80.9947 16.85 81.0031 16.9333 81.0197 17C81.0864 17.2 81.2114 17.4417 81.3947 17.725C81.5781 18.0083 81.7531 18.225 81.9197 18.375C82.0031 18.4583 82.0697 18.5 82.1197 18.5C82.1697 18.5 82.3697 18.3333 82.7197 18C83.1031 17.6167 83.3114 17.2583 83.3447 16.925C83.3614 16.8417 83.3697 16.7417 83.3697 16.625C83.3697 16.4583 83.2947 16.325 83.1447 16.225ZM81.6697 15.125C82.0364 15.0917 82.3197 15.075 82.5197 15.075C83.3031 15.075 83.8364 15.1583 84.1197 15.325C84.4531 15.5083 84.7281 15.8 84.9447 16.2C85.1781 16.6 85.2947 16.9917 85.2947 17.375C85.2947 17.6083 85.1947 17.8667 84.9947 18.15C84.7947 18.4167 84.5447 18.625 84.2447 18.775C83.9281 18.9583 83.0947 19.0667 81.7447 19.1L79.6947 19.15L79.6697 19.95V20.275C79.6697 20.6417 79.7697 20.9917 79.9697 21.325C80.3197 21.9417 80.8864 22.3833 81.6697 22.65C81.9697 22.75 82.2031 22.8 82.3697 22.8C82.5197 22.8 82.7447 22.775 83.0447 22.725C83.5614 22.625 83.9947 22.4167 84.3447 22.1C84.6781 21.7833 84.9364 21.625 85.1197 21.625C85.2697 21.625 85.3447 21.75 85.3447 22C85.3447 22.3333 85.2281 22.6833 84.9947 23.05C84.7781 23.4 84.4364 23.7 83.9697 23.95C83.5031 24.1833 83.0364 24.3 82.5697 24.3C82.1697 24.3 81.6781 24.2083 81.0947 24.025C80.5281 23.825 80.0697 23.6 79.7197 23.35C78.6197 22.55 78.0697 21.4 78.0697 19.9V19.475C78.1031 18.7583 78.2447 18.1417 78.4947 17.625C78.8114 16.975 79.2614 16.4167 79.8447 15.95C80.4281 15.4833 81.0364 15.2083 81.6697 15.125ZM89.1318 22C89.1318 21.7667 89.1152 21.625 89.0818 21.575C89.0652 21.5083 89.0068 21.475 88.9068 21.475C88.7402 21.475 88.6402 21.5417 88.6068 21.675C88.5568 21.8083 88.4735 21.9167 88.3568 22C88.2402 22.1 88.2402 22.2083 88.3568 22.325C88.5235 22.4583 88.7402 22.5167 89.0068 22.5C89.0902 22.5 89.1318 22.3333 89.1318 22ZM88.8818 9.9C88.9152 9.88333 88.9818 9.875 89.0818 9.875C89.4318 9.875 89.6485 9.95 89.7318 10.1C89.9152 10.3667 90.0068 10.875 90.0068 11.625C90.0068 12.4083 89.9235 13.525 89.7568 14.975C89.6235 16.175 89.5568 17.4167 89.5568 18.7C89.5568 19.9 89.6068 20.8833 89.7068 21.65C89.7735 22.0667 89.8068 22.4667 89.8068 22.85C89.8068 23.0167 89.7902 23.2167 89.7568 23.45L89.6568 24.025H89.0818C88.7485 24.025 88.5235 23.95 88.4068 23.8C88.3068 23.65 88.1902 23.25 88.0568 22.6C87.9735 22.15 87.9318 21.6583 87.9318 21.125C87.9318 20.6417 87.9568 19.8 88.0068 18.6C88.1902 14.0333 88.3402 11.4833 88.4568 10.95C88.4735 10.85 88.5068 10.7083 88.5568 10.525C88.6068 10.325 88.6318 10.2167 88.6318 10.2C88.6652 10.0333 88.7485 9.93333 88.8818 9.9ZM97.6955 16.225C97.5122 16.1083 97.4038 16.05 97.3705 16.05C97.3038 16.05 97.1538 16.125 96.9205 16.275C96.7372 16.3917 96.6205 16.4583 96.5705 16.475C96.5205 16.475 96.4455 16.4333 96.3455 16.35C96.2122 16.25 96.0955 16.2 95.9955 16.2C95.6955 16.2 95.5455 16.3833 95.5455 16.75C95.5455 16.85 95.5538 16.9333 95.5705 17C95.6372 17.2 95.7622 17.4417 95.9455 17.725C96.1288 18.0083 96.3038 18.225 96.4705 18.375C96.5538 18.4583 96.6205 18.5 96.6705 18.5C96.7205 18.5 96.9205 18.3333 97.2705 18C97.6538 17.6167 97.8622 17.2583 97.8955 16.925C97.9122 16.8417 97.9205 16.7417 97.9205 16.625C97.9205 16.4583 97.8455 16.325 97.6955 16.225ZM96.2205 15.125C96.5872 15.0917 96.8705 15.075 97.0705 15.075C97.8538 15.075 98.3872 15.1583 98.6705 15.325C99.0038 15.5083 99.2788 15.8 99.4955 16.2C99.7288 16.6 99.8455 16.9917 99.8455 17.375C99.8455 17.6083 99.7455 17.8667 99.5455 18.15C99.3455 18.4167 99.0955 18.625 98.7955 18.775C98.4788 18.9583 97.6455 19.0667 96.2955 19.1L94.2455 19.15L94.2205 19.95V20.275C94.2205 20.6417 94.3205 20.9917 94.5205 21.325C94.8705 21.9417 95.4372 22.3833 96.2205 22.65C96.5205 22.75 96.7538 22.8 96.9205 22.8C97.0705 22.8 97.2955 22.775 97.5955 22.725C98.1122 22.625 98.5455 22.4167 98.8955 22.1C99.2288 21.7833 99.4872 21.625 99.6705 21.625C99.8205 21.625 99.8955 21.75 99.8955 22C99.8955 22.3333 99.7788 22.6833 99.5455 23.05C99.3288 23.4 98.9872 23.7 98.5205 23.95C98.0538 24.1833 97.5872 24.3 97.1205 24.3C96.7205 24.3 96.2288 24.2083 95.6455 24.025C95.0788 23.825 94.6205 23.6 94.2705 23.35C93.1705 22.55 92.6205 21.4 92.6205 19.9V19.475C92.6538 18.7583 92.7955 18.1417 93.0455 17.625C93.3622 16.975 93.8122 16.4167 94.3955 15.95C94.9788 15.4833 95.5872 15.2083 96.2205 15.125ZM103.458 19.35C103.458 19.2 103.424 19.1667 103.358 19.25L103.283 19.375C103.266 19.4417 103.199 19.475 103.083 19.475C102.966 19.475 102.908 19.4917 102.908 19.525C102.908 19.625 102.966 19.6917 103.083 19.725C103.183 19.7583 103.266 19.7417 103.333 19.675C103.416 19.5917 103.458 19.4833 103.458 19.35ZM105.758 15.075C105.991 14.9917 106.391 14.95 106.958 14.95C107.841 14.95 108.399 15.0333 108.633 15.2C108.933 15.4 109.174 15.6417 109.358 15.925C109.558 16.2083 109.658 16.4667 109.658 16.7C109.658 16.85 109.608 16.975 109.508 17.075C109.474 17.1083 109.433 17.125 109.383 17.125C109.283 17.125 109.049 17 108.683 16.75C108.166 16.4 107.716 16.225 107.333 16.225C107.066 16.225 106.733 16.3 106.333 16.45C105.366 16.8333 104.641 17.4917 104.158 18.425C104.008 18.725 103.933 19.075 103.933 19.475C103.933 20.0417 104.091 20.5917 104.408 21.125C104.824 21.825 105.416 22.3 106.183 22.55C106.483 22.65 106.708 22.7 106.858 22.7C107.008 22.7 107.233 22.675 107.533 22.625C108.033 22.525 108.474 22.3083 108.858 21.975C109.224 21.6583 109.483 21.5 109.633 21.5C109.783 21.5 109.858 21.6333 109.858 21.9C109.858 22.2167 109.741 22.5583 109.508 22.925C109.024 23.7417 108.199 24.15 107.033 24.15C106.483 24.15 105.899 24.0333 105.283 23.8C104.799 23.6167 104.333 23.325 103.883 22.925C103.449 22.525 103.133 22.1083 102.933 21.675C102.666 21.0917 102.533 20.425 102.533 19.675C102.533 18.8917 102.674 18.1917 102.958 17.575C103.208 17.025 103.591 16.5167 104.108 16.05C104.624 15.5833 105.174 15.2583 105.758 15.075ZM116.368 14.925C116.368 14.7583 116.318 14.675 116.218 14.675C116.168 14.675 116.068 14.7 115.918 14.75C115.785 14.8 115.685 14.825 115.618 14.825C115.568 14.825 115.526 14.8167 115.493 14.8C115.46 14.7833 115.418 14.775 115.368 14.775C115.285 14.775 115.243 14.8083 115.243 14.875C115.243 14.9917 115.36 15.1667 115.593 15.4L115.943 15.725L116.168 15.45C116.301 15.2833 116.368 15.1083 116.368 14.925ZM115.543 10.125C115.593 9.95833 115.76 9.875 116.043 9.875C116.343 9.875 116.535 9.94167 116.618 10.075C116.801 10.3917 116.893 11 116.893 11.9C116.893 12.55 116.843 13.225 116.743 13.925L116.693 14.4L117.668 14.475C118.118 14.5083 118.41 14.5417 118.543 14.575C118.693 14.6083 118.826 14.6917 118.943 14.825C119.11 15.025 119.143 15.2083 119.043 15.375C118.843 15.7083 118.326 15.875 117.493 15.875H117.318H116.543L116.443 17.1C116.41 17.6333 116.393 18.0583 116.393 18.375C116.393 19.425 116.468 20.5417 116.618 21.725C116.668 22.1917 116.693 22.5833 116.693 22.9C116.693 23.65 116.476 24.025 116.043 24.025C115.926 24.025 115.835 24.0167 115.768 24C115.551 23.9667 115.385 23.85 115.268 23.65C115.168 23.4333 115.06 23.0417 114.943 22.475C114.876 22.0917 114.843 21.5 114.843 20.7C114.843 20.15 114.86 19.375 114.893 18.375C114.943 17.375 114.968 16.7417 114.968 16.475C114.968 16.0917 114.943 15.8917 114.893 15.875C114.776 15.825 114.46 15.7833 113.943 15.75C113.46 15.7167 113.126 15.6583 112.943 15.575C112.76 15.4917 112.643 15.35 112.593 15.15C112.576 15.1167 112.568 15.0667 112.568 15C112.568 14.6167 112.901 14.425 113.568 14.425C113.868 14.425 114.218 14.4083 114.618 14.375L115.143 14.275V13.25C115.143 12.1 115.276 11.0583 115.543 10.125Z" fill="white"/>
<defs>
<filter id="filter0_f_7_200" x="4.80704" y="5.275" width="118.386" height="23.9" filterUnits="userSpaceOnUse" color-interpolation-filters="sRGB">
<feFlood flood-opacity="0" result="BackgroundImageFix"/>
<feBlend mode="normal" in="SourceGraphic" in2="BackgroundImageFix" result="shape"/>
<feGaussianBlur stdDeviation="2" result="effect1_foregroundBlur_7_200"/>
</filter>
</defs>
</svg>
