<svg width="128" height="32" viewBox="0 0 128 32" fill="none" xmlns="http://www.w3.org/2000/svg">
<rect width="128" height="32" rx="16" fill="#FF00B3" fill-opacity="0.58"/>
<g filter="url(#filter0_f_7_195)">
<path d="M51.2868 22.195C51.0768 22.335 50.8668 22.335 50.6568 22.195C50.5168 22.1017 50.4235 22.0667 50.3768 22.09C50.3535 22.1133 50.3418 22.2183 50.3418 22.405C50.3418 22.6383 50.4701 22.9067 50.7268 23.21L51.0768 23.63L51.4968 23.14C51.7535 22.86 51.8818 22.58 51.8818 22.3C51.8818 22.1367 51.8118 22.055 51.6718 22.055C51.5785 22.055 51.4501 22.1017 51.2868 22.195ZM48.3818 7.915C47.8685 7.65833 47.3785 7.53 46.9118 7.53C46.1185 7.53 45.3951 7.83333 44.7418 8.44C44.0885 9.04667 43.5985 9.875 43.2718 10.925C42.8285 12.325 42.6068 14.0283 42.6068 16.035C42.6068 18.345 42.8985 20.1183 43.4818 21.355C43.8551 22.1483 44.3335 22.7783 44.9168 23.245C45.5235 23.6883 46.1651 23.91 46.8418 23.91C47.2151 23.91 47.6235 23.8167 48.0668 23.63C48.8368 23.3033 49.2218 23.0117 49.2218 22.755C49.2218 22.5917 49.0701 22.23 48.7668 21.67C48.2768 20.7367 48.0318 20.025 48.0318 19.535C48.0318 19.3017 48.1018 19.115 48.2418 18.975C48.4051 18.8583 48.5451 18.8 48.6618 18.8C48.9418 18.8 49.3618 19.0683 49.9218 19.605L50.6218 20.34L50.7968 19.71C51.1468 18.4033 51.3218 17.0733 51.3218 15.72C51.3218 11.4967 50.3418 8.895 48.3818 7.915ZM45.6868 5.395C46.2001 5.13833 46.7368 5.01 47.2968 5.01C48.4401 5.01 49.5718 5.43 50.6918 6.27C51.8351 7.08667 52.6985 8.14833 53.2818 9.455C53.8885 10.785 54.1918 13.13 54.1918 16.49C54.1918 17.5867 54.1685 18.3217 54.1218 18.695C54.0985 19.0683 53.9818 19.5467 53.7718 20.13C53.4685 21.04 53.2118 21.6817 53.0018 22.055C52.8618 22.335 52.7918 22.5333 52.7918 22.65C52.7918 22.79 52.8735 23.0933 53.0368 23.56C53.2935 24.26 53.4335 24.7383 53.4568 24.995C53.4568 25.0417 53.4568 25.0883 53.4568 25.135C53.4801 25.1817 53.4918 25.2167 53.4918 25.24C53.4918 25.73 53.2818 25.975 52.8618 25.975C52.5351 25.975 52.1501 25.7883 51.7068 25.415C51.2401 25.0417 50.9368 24.9367 50.7968 25.1C50.6801 25.2633 50.3651 25.4733 49.8518 25.73C49.0118 26.15 48.1368 26.36 47.2268 26.36C45.9901 26.36 44.8001 25.9983 43.6568 25.275C42.5368 24.5283 41.6618 23.525 41.0318 22.265C40.3318 20.8183 39.9818 18.9983 39.9818 16.805C39.9818 16.175 40.0168 15.58 40.0868 15.02C40.4135 12.5467 41.2301 10.33 42.5368 8.37C43.4701 6.97 44.5201 5.97833 45.6868 5.395ZM67.202 22.58C67.202 22.4633 67.1786 22.3817 67.132 22.335C67.0853 22.2883 67.027 22.2883 66.957 22.335C66.887 22.3583 66.8053 22.4167 66.712 22.51C66.572 22.6733 66.3503 22.72 66.047 22.65C65.767 22.5567 65.627 22.6267 65.627 22.86C65.627 23.0233 65.7436 23.2333 65.977 23.49C66.2336 23.7233 66.4553 23.84 66.642 23.84C66.7586 23.84 66.8753 23.6883 66.992 23.385C67.132 23.0817 67.202 22.8133 67.202 22.58ZM58.452 13.41C58.5686 13.3167 58.7086 13.27 58.872 13.27C59.012 13.27 59.1753 13.34 59.362 13.48C59.572 13.62 59.6886 13.7483 59.712 13.865C59.7586 14.075 59.8053 15.4283 59.852 17.925C59.8986 20.4917 60.027 22.0783 60.237 22.685C60.4003 23.2217 60.552 23.5717 60.692 23.735C60.832 23.875 61.1003 24.015 61.497 24.155C61.6136 24.2017 61.8003 24.225 62.057 24.225C63.0136 24.225 63.8653 23.7233 64.612 22.72C64.9853 22.23 65.2303 21.6583 65.347 21.005C65.4636 20.3283 65.5453 19.1033 65.592 17.33C65.662 15.1367 65.802 13.935 66.012 13.725C66.1986 13.515 66.397 13.41 66.607 13.41C66.747 13.41 66.8753 13.4683 66.992 13.585C67.552 14.3083 67.8436 16.7933 67.867 21.04V23.035C67.867 24.2017 67.7503 25.03 67.517 25.52C67.2603 26.0567 66.992 26.325 66.712 26.325C66.5486 26.325 66.432 26.2783 66.362 26.185C66.292 26.0917 66.1753 25.8583 66.012 25.485L65.697 24.68L65.242 25.135C64.542 25.835 63.597 26.185 62.407 26.185H62.092C61.532 26.1383 60.9253 25.9517 60.272 25.625C59.642 25.2983 59.1753 24.9367 58.872 24.54C58.4053 23.9333 58.1136 23.315 57.997 22.685C57.9036 22.0317 57.857 20.6667 57.857 18.59C57.857 16.63 57.892 15.3117 57.962 14.635C58.0553 13.9583 58.2186 13.55 58.452 13.41ZM71.6005 9.035C71.7871 8.77833 71.9505 8.65 72.0905 8.65C72.2771 8.65 72.5105 8.81333 72.7905 9.14L73.2805 9.665L73.7355 9.21C74.0388 8.95333 74.2838 8.825 74.4705 8.825C74.8205 8.825 74.9955 9.04667 74.9955 9.49C74.9955 9.65333 74.9605 9.84 74.8905 10.05C74.5638 11.1467 74.0271 11.695 73.2805 11.695C72.7671 11.695 72.3238 11.38 71.9505 10.75C71.6005 10.19 71.4255 9.78167 71.4255 9.525C71.4255 9.36167 71.4838 9.19833 71.6005 9.035ZM72.1605 14.04C72.4171 13.5033 72.6738 13.235 72.9305 13.235C73.1171 13.235 73.3738 13.3983 73.7005 13.725C74.0271 14.0517 74.2488 14.5067 74.3655 15.09C74.5055 15.65 74.5988 16.6767 74.6455 18.17C74.6455 18.31 74.6455 18.5317 74.6455 18.835C74.6688 19.1383 74.6805 19.3717 74.6805 19.535C74.6805 23.1517 74.3305 25.2867 73.6305 25.94C73.4671 26.1033 73.2921 26.185 73.1055 26.185C72.5455 26.185 72.1021 25.5317 71.7755 24.225C71.6355 23.7583 71.5655 22.6383 71.5655 20.865C71.5655 17.1083 71.7638 14.8333 72.1605 14.04ZM84.0632 13.095C84.0632 12.8617 83.9932 12.745 83.8532 12.745C83.7832 12.745 83.6432 12.78 83.4332 12.85C83.2465 12.92 83.1065 12.955 83.0132 12.955C82.9432 12.955 82.8849 12.9433 82.8382 12.92C82.7915 12.8967 82.7332 12.885 82.6632 12.885C82.5465 12.885 82.4882 12.9317 82.4882 13.025C82.4882 13.1883 82.6515 13.4333 82.9782 13.76L83.4682 14.215L83.7832 13.83C83.9699 13.5967 84.0632 13.3517 84.0632 13.095ZM82.9082 6.375C82.9782 6.14167 83.2115 6.025 83.6082 6.025C84.0282 6.025 84.2965 6.11833 84.4132 6.305C84.6699 6.74833 84.7982 7.6 84.7982 8.86C84.7982 9.77 84.7282 10.715 84.5882 11.695L84.5182 12.36L85.8832 12.465C86.5132 12.5117 86.9215 12.5583 87.1082 12.605C87.3182 12.6517 87.5049 12.7683 87.6682 12.955C87.9015 13.235 87.9482 13.4917 87.8082 13.725C87.5282 14.1917 86.8049 14.425 85.6382 14.425H85.3932H84.3082L84.1682 16.14C84.1215 16.8867 84.0982 17.4817 84.0982 17.925C84.0982 19.395 84.2032 20.9583 84.4132 22.615C84.4832 23.2683 84.5182 23.8167 84.5182 24.26C84.5182 25.31 84.2149 25.835 83.6082 25.835C83.4449 25.835 83.3165 25.8233 83.2232 25.8C82.9199 25.7533 82.6865 25.59 82.5232 25.31C82.3832 25.0067 82.2315 24.4583 82.0682 23.665C81.9749 23.1283 81.9282 22.3 81.9282 21.18C81.9282 20.41 81.9515 19.325 81.9982 17.925C82.0682 16.525 82.1032 15.6383 82.1032 15.265C82.1032 14.7283 82.0682 14.4483 81.9982 14.425C81.8349 14.355 81.3915 14.2967 80.6682 14.25C79.9915 14.2033 79.5249 14.1217 79.2682 14.005C79.0115 13.8883 78.8482 13.69 78.7782 13.41C78.7549 13.3633 78.7432 13.2933 78.7432 13.2C78.7432 12.6633 79.2099 12.395 80.1432 12.395C80.5632 12.395 81.0532 12.3717 81.6132 12.325L82.3482 12.185V10.75C82.3482 9.14 82.5349 7.68167 82.9082 6.375Z" fill="#00AAFF"/>
</g>
<path d="M51.2868 22.195C51.0768 22.335 50.8668 22.335 50.6568 22.195C50.5168 22.1017 50.4235 22.0667 50.3768 22.09C50.3535 22.1133 50.3418 22.2183 50.3418 22.405C50.3418 22.6383 50.4701 22.9067 50.7268 23.21L51.0768 23.63L51.4968 23.14C51.7535 22.86 51.8818 22.58 51.8818 22.3C51.8818 22.1367 51.8118 22.055 51.6718 22.055C51.5785 22.055 51.4501 22.1017 51.2868 22.195ZM48.3818 7.915C47.8685 7.65833 47.3785 7.53 46.9118 7.53C46.1185 7.53 45.3951 7.83333 44.7418 8.44C44.0885 9.04667 43.5985 9.875 43.2718 10.925C42.8285 12.325 42.6068 14.0283 42.6068 16.035C42.6068 18.345 42.8985 20.1183 43.4818 21.355C43.8551 22.1483 44.3335 22.7783 44.9168 23.245C45.5235 23.6883 46.1651 23.91 46.8418 23.91C47.2151 23.91 47.6235 23.8167 48.0668 23.63C48.8368 23.3033 49.2218 23.0117 49.2218 22.755C49.2218 22.5917 49.0701 22.23 48.7668 21.67C48.2768 20.7367 48.0318 20.025 48.0318 19.535C48.0318 19.3017 48.1018 19.115 48.2418 18.975C48.4051 18.8583 48.5451 18.8 48.6618 18.8C48.9418 18.8 49.3618 19.0683 49.9218 19.605L50.6218 20.34L50.7968 19.71C51.1468 18.4033 51.3218 17.0733 51.3218 15.72C51.3218 11.4967 50.3418 8.895 48.3818 7.915ZM45.6868 5.395C46.2001 5.13833 46.7368 5.01 47.2968 5.01C48.4401 5.01 49.5718 5.43 50.6918 6.27C51.8351 7.08667 52.6985 8.14833 53.2818 9.455C53.8885 10.785 54.1918 13.13 54.1918 16.49C54.1918 17.5867 54.1685 18.3217 54.1218 18.695C54.0985 19.0683 53.9818 19.5467 53.7718 20.13C53.4685 21.04 53.2118 21.6817 53.0018 22.055C52.8618 22.335 52.7918 22.5333 52.7918 22.65C52.7918 22.79 52.8735 23.0933 53.0368 23.56C53.2935 24.26 53.4335 24.7383 53.4568 24.995C53.4568 25.0417 53.4568 25.0883 53.4568 25.135C53.4801 25.1817 53.4918 25.2167 53.4918 25.24C53.4918 25.73 53.2818 25.975 52.8618 25.975C52.5351 25.975 52.1501 25.7883 51.7068 25.415C51.2401 25.0417 50.9368 24.9367 50.7968 25.1C50.6801 25.2633 50.3651 25.4733 49.8518 25.73C49.0118 26.15 48.1368 26.36 47.2268 26.36C45.9901 26.36 44.8001 25.9983 43.6568 25.275C42.5368 24.5283 41.6618 23.525 41.0318 22.265C40.3318 20.8183 39.9818 18.9983 39.9818 16.805C39.9818 16.175 40.0168 15.58 40.0868 15.02C40.4135 12.5467 41.2301 10.33 42.5368 8.37C43.4701 6.97 44.5201 5.97833 45.6868 5.395ZM67.202 22.58C67.202 22.4633 67.1786 22.3817 67.132 22.335C67.0853 22.2883 67.027 22.2883 66.957 22.335C66.887 22.3583 66.8053 22.4167 66.712 22.51C66.572 22.6733 66.3503 22.72 66.047 22.65C65.767 22.5567 65.627 22.6267 65.627 22.86C65.627 23.0233 65.7436 23.2333 65.977 23.49C66.2336 23.7233 66.4553 23.84 66.642 23.84C66.7586 23.84 66.8753 23.6883 66.992 23.385C67.132 23.0817 67.202 22.8133 67.202 22.58ZM58.452 13.41C58.5686 13.3167 58.7086 13.27 58.872 13.27C59.012 13.27 59.1753 13.34 59.362 13.48C59.572 13.62 59.6886 13.7483 59.712 13.865C59.7586 14.075 59.8053 15.4283 59.852 17.925C59.8986 20.4917 60.027 22.0783 60.237 22.685C60.4003 23.2217 60.552 23.5717 60.692 23.735C60.832 23.875 61.1003 24.015 61.497 24.155C61.6136 24.2017 61.8003 24.225 62.057 24.225C63.0136 24.225 63.8653 23.7233 64.612 22.72C64.9853 22.23 65.2303 21.6583 65.347 21.005C65.4636 20.3283 65.5453 19.1033 65.592 17.33C65.662 15.1367 65.802 13.935 66.012 13.725C66.1986 13.515 66.397 13.41 66.607 13.41C66.747 13.41 66.8753 13.4683 66.992 13.585C67.552 14.3083 67.8436 16.7933 67.867 21.04V23.035C67.867 24.2017 67.7503 25.03 67.517 25.52C67.2603 26.0567 66.992 26.325 66.712 26.325C66.5486 26.325 66.432 26.2783 66.362 26.185C66.292 26.0917 66.1753 25.8583 66.012 25.485L65.697 24.68L65.242 25.135C64.542 25.835 63.597 26.185 62.407 26.185H62.092C61.532 26.1383 60.9253 25.9517 60.272 25.625C59.642 25.2983 59.1753 24.9367 58.872 24.54C58.4053 23.9333 58.1136 23.315 57.997 22.685C57.9036 22.0317 57.857 20.6667 57.857 18.59C57.857 16.63 57.892 15.3117 57.962 14.635C58.0553 13.9583 58.2186 13.55 58.452 13.41ZM71.6005 9.035C71.7871 8.77833 71.9505 8.65 72.0905 8.65C72.2771 8.65 72.5105 8.81333 72.7905 9.14L73.2805 9.665L73.7355 9.21C74.0388 8.95333 74.2838 8.825 74.4705 8.825C74.8205 8.825 74.9955 9.04667 74.9955 9.49C74.9955 9.65333 74.9605 9.84 74.8905 10.05C74.5638 11.1467 74.0271 11.695 73.2805 11.695C72.7671 11.695 72.3238 11.38 71.9505 10.75C71.6005 10.19 71.4255 9.78167 71.4255 9.525C71.4255 9.36167 71.4838 9.19833 71.6005 9.035ZM72.1605 14.04C72.4171 13.5033 72.6738 13.235 72.9305 13.235C73.1171 13.235 73.3738 13.3983 73.7005 13.725C74.0271 14.0517 74.2488 14.5067 74.3655 15.09C74.5055 15.65 74.5988 16.6767 74.6455 18.17C74.6455 18.31 74.6455 18.5317 74.6455 18.835C74.6688 19.1383 74.6805 19.3717 74.6805 19.535C74.6805 23.1517 74.3305 25.2867 73.6305 25.94C73.4671 26.1033 73.2921 26.185 73.1055 26.185C72.5455 26.185 72.1021 25.5317 71.7755 24.225C71.6355 23.7583 71.5655 22.6383 71.5655 20.865C71.5655 17.1083 71.7638 14.8333 72.1605 14.04ZM84.0632 13.095C84.0632 12.8617 83.9932 12.745 83.8532 12.745C83.7832 12.745 83.6432 12.78 83.4332 12.85C83.2465 12.92 83.1065 12.955 83.0132 12.955C82.9432 12.955 82.8849 12.9433 82.8382 12.92C82.7915 12.8967 82.7332 12.885 82.6632 12.885C82.5465 12.885 82.4882 12.9317 82.4882 13.025C82.4882 13.1883 82.6515 13.4333 82.9782 13.76L83.4682 14.215L83.7832 13.83C83.9699 13.5967 84.0632 13.3517 84.0632 13.095ZM82.9082 6.375C82.9782 6.14167 83.2115 6.025 83.6082 6.025C84.0282 6.025 84.2965 6.11833 84.4132 6.305C84.6699 6.74833 84.7982 7.6 84.7982 8.86C84.7982 9.77 84.7282 10.715 84.5882 11.695L84.5182 12.36L85.8832 12.465C86.5132 12.5117 86.9215 12.5583 87.1082 12.605C87.3182 12.6517 87.5049 12.7683 87.6682 12.955C87.9015 13.235 87.9482 13.4917 87.8082 13.725C87.5282 14.1917 86.8049 14.425 85.6382 14.425H85.3932H84.3082L84.1682 16.14C84.1215 16.8867 84.0982 17.4817 84.0982 17.925C84.0982 19.395 84.2032 20.9583 84.4132 22.615C84.4832 23.2683 84.5182 23.8167 84.5182 24.26C84.5182 25.31 84.2149 25.835 83.6082 25.835C83.4449 25.835 83.3165 25.8233 83.2232 25.8C82.9199 25.7533 82.6865 25.59 82.5232 25.31C82.3832 25.0067 82.2315 24.4583 82.0682 23.665C81.9749 23.1283 81.9282 22.3 81.9282 21.18C81.9282 20.41 81.9515 19.325 81.9982 17.925C82.0682 16.525 82.1032 15.6383 82.1032 15.265C82.1032 14.7283 82.0682 14.4483 81.9982 14.425C81.8349 14.355 81.3915 14.2967 80.6682 14.25C79.9915 14.2033 79.5249 14.1217 79.2682 14.005C79.0115 13.8883 78.8482 13.69 78.7782 13.41C78.7549 13.3633 78.7432 13.2933 78.7432 13.2C78.7432 12.6633 79.2099 12.395 80.1432 12.395C80.5632 12.395 81.0532 12.3717 81.6132 12.325L82.3482 12.185V10.75C82.3482 9.14 82.5349 7.68167 82.9082 6.375Z" fill="white"/>
<defs>
<filter id="filter0_f_7_195" x="35.9818" y="1.01" width="56.0364" height="29.35" filterUnits="userSpaceOnUse" color-interpolation-filters="sRGB">
<feFlood flood-opacity="0" result="BackgroundImageFix"/>
<feBlend mode="normal" in="SourceGraphic" in2="BackgroundImageFix" result="shape"/>
<feGaussianBlur stdDeviation="2" result="effect1_foregroundBlur_7_195"/>
</filter>
</defs>
</svg>
